<mxfile modified="2020-08-31T20:52:57.297Z" host="app.diagrams.net" agent="5.0 (Windows NT 10.0; Win64; x64) AppleWebKit/537.36 (KHTML, like Gecko) Chrome/80.0.3987.163 Safari/537.36" etag="TO4EAcd1jHyoXzRcZtTO" version="13.6.4" type="github" pages="2">
  <diagram id="7gcUSTIZ7YSJ5vT40chW" name="tms">
    <mxGraphModel dx="1662" dy="762" grid="0" gridSize="10" guides="1" tooltips="1" connect="1" arrows="1" fold="1" page="1" pageScale="1" pageWidth="1169" pageHeight="827" math="0" shadow="0">
      <root>
        <mxCell id="0" />
        <mxCell id="1" parent="0" />
        <mxCell id="AWzvq9XBWHpSc_mT4nes-47" value="" style="rounded=0;whiteSpace=wrap;html=1;" parent="1" vertex="1">
          <mxGeometry x="200" y="120" width="720" height="390" as="geometry" />
        </mxCell>
        <mxCell id="AWzvq9XBWHpSc_mT4nes-48" style="edgeStyle=none;rounded=0;orthogonalLoop=1;jettySize=auto;html=1;" parent="1" source="AWzvq9XBWHpSc_mT4nes-50" target="AWzvq9XBWHpSc_mT4nes-63" edge="1" treatAsSingle="0">
          <mxGeometry relative="1" as="geometry" />
        </mxCell>
        <mxCell id="AWzvq9XBWHpSc_mT4nes-49" value="Load to struct zone&lt;br&gt;" style="edgeLabel;html=1;align=center;verticalAlign=middle;resizable=0;points=[];" parent="AWzvq9XBWHpSc_mT4nes-48" vertex="1" connectable="0">
          <mxGeometry x="0.2462" y="1" relative="1" as="geometry">
            <mxPoint y="-1" as="offset" />
          </mxGeometry>
        </mxCell>
        <mxCell id="AWzvq9XBWHpSc_mT4nes-50" value="Databricks Spark&lt;br&gt;ADBDE" style="aspect=fixed;html=1;perimeter=none;align=center;shadow=0;dashed=0;image;fontSize=12;image=img/lib/mscae/Databricks.svg;" parent="1" vertex="1">
          <mxGeometry x="527.75" y="171.5" width="47.5" height="50" as="geometry" />
        </mxCell>
        <mxCell id="AWzvq9XBWHpSc_mT4nes-51" value="Power BI&lt;br&gt;Dashboard" style="shadow=0;dashed=0;html=1;strokeColor=none;labelPosition=center;verticalLabelPosition=bottom;verticalAlign=top;align=center;shape=mxgraph.mscae.cloud.power_bi_embedded;fillColor=#000000;pointerEvents=1;" parent="1" vertex="1">
          <mxGeometry x="849.5" y="353" width="44.5" height="50" as="geometry" />
        </mxCell>
        <mxCell id="AWzvq9XBWHpSc_mT4nes-52" value="Extract Daily" style="edgeStyle=none;rounded=0;orthogonalLoop=1;jettySize=auto;html=1;exitX=0;exitY=0.5;exitDx=0;exitDy=0;" parent="1" source="AWzvq9XBWHpSc_mT4nes-68" target="AWzvq9XBWHpSc_mT4nes-53" edge="1">
          <mxGeometry relative="1" as="geometry" />
        </mxCell>
        <mxCell id="AWzvq9XBWHpSc_mT4nes-53" value="On-prem TMS &lt;br&gt;SQL server&amp;nbsp;" style="pointerEvents=1;shadow=0;dashed=0;html=1;strokeColor=none;fillColor=#505050;labelPosition=center;verticalLabelPosition=bottom;verticalAlign=top;outlineConnect=0;align=center;shape=mxgraph.office.servers.sql_server;" parent="1" vertex="1">
          <mxGeometry x="38" y="178.5" width="43" height="56" as="geometry" />
        </mxCell>
        <mxCell id="AWzvq9XBWHpSc_mT4nes-54" style="edgeStyle=none;rounded=0;orthogonalLoop=1;jettySize=auto;html=1;entryX=-0.109;entryY=0.633;entryDx=0;entryDy=0;entryPerimeter=0;" parent="1" source="AWzvq9XBWHpSc_mT4nes-56" target="AWzvq9XBWHpSc_mT4nes-63" edge="1" treatAsSingle="0">
          <mxGeometry relative="1" as="geometry">
            <mxPoint x="538" y="400" as="targetPoint" />
            <Array as="points">
              <mxPoint x="398" y="400" />
            </Array>
          </mxGeometry>
        </mxCell>
        <mxCell id="AWzvq9XBWHpSc_mT4nes-55" value="Load to Raw zone" style="edgeLabel;html=1;align=center;verticalAlign=middle;resizable=0;points=[];" parent="AWzvq9XBWHpSc_mT4nes-54" vertex="1" connectable="0">
          <mxGeometry x="-0.2648" relative="1" as="geometry">
            <mxPoint as="offset" />
          </mxGeometry>
        </mxCell>
        <mxCell id="AWzvq9XBWHpSc_mT4nes-56" value="Azure Data Factory&#xa;" style="shape=image;verticalLabelPosition=bottom;labelBackgroundColor=#ffffff;verticalAlign=top;aspect=fixed;imageAspect=0;image=data:image/svg+xml,PHN2ZyB4bWxuczpkYz0iaHR0cDovL3B1cmwub3JnL2RjL2VsZW1lbnRzLzEuMS8iIHhtbG5zOmNjPSJodHRwOi8vY3JlYXRpdmVjb21tb25zLm9yZy9ucyMiIHhtbG5zOnJkZj0iaHR0cDovL3d3dy53My5vcmcvMTk5OS8wMi8yMi1yZGYtc3ludGF4LW5zIyIgeG1sbnM6c3ZnPSJodHRwOi8vd3d3LnczLm9yZy8yMDAwL3N2ZyIgeG1sbnM9Imh0dHA6Ly93d3cudzMub3JnLzIwMDAvc3ZnIiB4bWxuczpzb2RpcG9kaT0iaHR0cDovL3NvZGlwb2RpLnNvdXJjZWZvcmdlLm5ldC9EVEQvc29kaXBvZGktMC5kdGQiIHhtbG5zOmlua3NjYXBlPSJodHRwOi8vd3d3Lmlua3NjYXBlLm9yZy9uYW1lc3BhY2VzL2lua3NjYXBlIiB2ZXJzaW9uPSIxLjEiIGlkPSJzdmc1Njg2MSIgaW5rc2NhcGU6dmVyc2lvbj0iMC45Mi4zICgyNDA1NTQ2LCAyMDE4LTAzLTExKSIgc29kaXBvZGk6ZG9jbmFtZT0iYXp1cmVfZGF0YV9mYWN0b3J5LnN2ZyIgeD0iMHB4IiB5PSIwcHgiIHZpZXdCb3g9IjAgMCAxMDAuMSA5OS45IiB4bWw6c3BhY2U9InByZXNlcnZlIiB3aWR0aD0iMTAwLjEiIGhlaWdodD0iOTkuOTAwMDAyIj48bWV0YWRhdGEgaWQ9Im1ldGFkYXRhNjgyMyI+PHJkZjpSREY+PGNjOldvcmsgcmRmOmFib3V0PSIiPjxkYzpmb3JtYXQ+aW1hZ2Uvc3ZnK3htbDwvZGM6Zm9ybWF0PjxkYzp0eXBlIHJkZjpyZXNvdXJjZT0iaHR0cDovL3B1cmwub3JnL2RjL2RjbWl0eXBlL1N0aWxsSW1hZ2UiLz48ZGM6dGl0bGUvPjwvY2M6V29yaz48L3JkZjpSREY+PC9tZXRhZGF0YT48ZGVmcyBpZD0iZGVmczY4MjEiLz4mI3hhOzxmaWx0ZXIgaWQ9ImZpbHRlcl8yIj4mI3hhOwk8ZmVHYXVzc2lhbkJsdXIgaWQ9ImZlR2F1c3NpYW5CbHVyNTY4MTAiIHN0ZERldmlhdGlvbj0iMiIvPiYjeGE7PC9maWx0ZXI+JiN4YTs8c29kaXBvZGk6bmFtZWR2aWV3IGJvcmRlcmNvbG9yPSIjNjY2NjY2IiBib3JkZXJvcGFjaXR5PSIxIiBmaXQtbWFyZ2luLWJvdHRvbT0iMCIgZml0LW1hcmdpbi1sZWZ0PSIwIiBmaXQtbWFyZ2luLXJpZ2h0PSIwIiBmaXQtbWFyZ2luLXRvcD0iMCIgZ3JpZHRvbGVyYW5jZT0iMTAiIGd1aWRldG9sZXJhbmNlPSIxMCIgaWQ9Im5hbWVkdmlldzU2ODYzIiBpbmtzY2FwZTpjdXJyZW50LWxheWVyPSJzdmc1Njg2MSIgaW5rc2NhcGU6Y3g9Ii0yMi41MTIwNzIiIGlua3NjYXBlOmN5PSI1Ni44MTcyNzkiIGlua3NjYXBlOnBhZ2VvcGFjaXR5PSIwIiBpbmtzY2FwZTpwYWdlc2hhZG93PSIyIiBpbmtzY2FwZTp3aW5kb3ctaGVpZ2h0PSIxMDE3IiBpbmtzY2FwZTp3aW5kb3ctbWF4aW1pemVkPSIxIiBpbmtzY2FwZTp3aW5kb3ctd2lkdGg9IjE5MjAiIGlua3NjYXBlOndpbmRvdy14PSItOCIgaW5rc2NhcGU6d2luZG93LXk9Ii04IiBpbmtzY2FwZTp6b29tPSIzLjY5Njc5MDciIG9iamVjdHRvbGVyYW5jZT0iMTAiIHBhZ2Vjb2xvcj0iI2ZmZmZmZiIgc2hvd2dyaWQ9ImZhbHNlIj4mI3hhOwk8L3NvZGlwb2RpOm5hbWVkdmlldz4mI3hhOyYjeGE7PHBhdGggaWQ9InBhdGg1NjgyMyIgaW5rc2NhcGU6Y29ubmVjdG9yLWN1cnZhdHVyZT0iMCIgc3R5bGU9ImZpbGw6IzU5YjRkOSIgZD0iTSA5OS45LDU4Ljg2IFYgMzQuNjMgTCA3Mi40Nyw1OC40NiBoIC0wLjYgViAzNC42MyBMIDQ0LjQ0LDU4LjQ2IFYgOC42MSBDIDQ0LjQ0LDQuNCAzNS4wMywwLjIgMjIuNjIsMC4yIDEwLjIxLDAuMiAwLDQuMiAwLDguNjEgViA5OS45IEggMTAwLjEgWiBNIDIyLjYyLDEyLjYxIGMgLTkuMDEsMCAtMTYuMjEsLTIuMiAtMTYuMjEsLTQuNiAwLC0yLjQgNy4yLC00LjYxIDE2LjIxLC00LjYxIDkuMDEsMCAxNi4yMiwyLjAxIDE2LjIyLDQuNjEgLTAuMiwyLjQgLTcuNDEsNC42IC0xNi4yMiw0LjYgeiBNIDY5Ljg3LDgzLjY4IEggNTguODYgViA3Mi42NyBoIDExLjAxIHogbSAtMTkuNDIsMCBIIDM5LjQ0IFYgNzIuNjcgaCAxMS4wMSB6IG0gMjguMDMsMCBWIDcyLjY3IGggMTEuMDEgdiAxMS4wMSB6Ii8+JiN4YTsmI3hhOzxyZWN0IGlkPSJyZWN0NTY4MzEiIHg9IjAiIHk9IjguMDEwMDAwMiIgc3R5bGU9ImZpbGw6IzM5OTljNiIgd2lkdGg9IjIyLjIxOTk5OSIgaGVpZ2h0PSI5MS44ODk5OTkiLz4mI3hhOyYjeGE7PHBhdGggaWQ9InBhdGg1NjgzOSIgaW5rc2NhcGU6Y29ubmVjdG9yLWN1cnZhdHVyZT0iMCIgc3R5bGU9ImZpbGw6I2ZmZmZmZiIgZD0ibSA0NC4yNCw4LjAxIGMgMCw0LjQgLTEwLjAxLDguMDEgLTIyLjIyLDguMDEgQyA5LjgxLDE2LjAyIDAsMTIuNDEgMCw4LjAxIDAsMy42IDEwLjAxLDAgMjIuMjIsMCAzNC40MywwIDQ0LjI0LDMuNCA0NC4yNCw4LjAxIFoiLz4mI3hhOyYjeGE7PHBhdGggaWQ9InBhdGg1Njg0NyIgaW5rc2NhcGU6Y29ubmVjdG9yLWN1cnZhdHVyZT0iMCIgc3R5bGU9ImZpbGw6IzdmYmEwMCIgZD0ibSAzOS44Myw3LjQxIGMgMCwzIC03LjgsNS4yMSAtMTcuNjEsNS4yMSAtOS44MSwwIC0xNy42MiwtMi4yMSAtMTcuNjIsLTUuMjEgMCwtMyA3LjgxLC01LjIgMTcuNjIsLTUuMiA5LjgxLDAgMTcuNjEsMi40IDE3LjYxLDUuMiB6Ii8+JiN4YTsmI3hhOzxwYXRoIGlkPSJwYXRoNTY4NTUiIGlua3NjYXBlOmNvbm5lY3Rvci1jdXJ2YXR1cmU9IjAiIHN0eWxlPSJmaWxsOiNiOGQ0MzIiIGQ9Im0gMzYuMDMsMTAuNjEgYyAyLjQsLTAuOCAzLjYsLTIgMy42LC0zLjIxIDAsLTMgLTcuOCwtNS4yIC0xNy42MSwtNS4yIEMgMTIuMjEsMi4yIDQuNCw0LjYgNC40LDcuNCA0LjYsOC42MSA2LDkuODEgOC4yLDEwLjYxIGMgMy4yMSwtMS4yIDguMjEsLTIgMTQuMDIsLTIgNS42LDAgMTAuNjEsMC44IDEzLjgxLDIgeiIvPiYjeGE7PC9zdmc+;" parent="1" vertex="1">
          <mxGeometry x="378" y="174.5" width="39" height="39" as="geometry" />
        </mxCell>
        <mxCell id="AWzvq9XBWHpSc_mT4nes-57" style="edgeStyle=none;rounded=0;orthogonalLoop=1;jettySize=auto;html=1;entryX=0.174;entryY=0.39;entryDx=0;entryDy=0;entryPerimeter=0;" parent="1" source="AWzvq9XBWHpSc_mT4nes-59" target="AWzvq9XBWHpSc_mT4nes-64" edge="1" treatAsSingle="0">
          <mxGeometry relative="1" as="geometry" />
        </mxCell>
        <mxCell id="AWzvq9XBWHpSc_mT4nes-58" value="query" style="edgeLabel;html=1;align=center;verticalAlign=middle;resizable=0;points=[];" parent="AWzvq9XBWHpSc_mT4nes-57" vertex="1" connectable="0">
          <mxGeometry x="0.1806" relative="1" as="geometry">
            <mxPoint as="offset" />
          </mxGeometry>
        </mxCell>
        <mxCell id="AWzvq9XBWHpSc_mT4nes-59" value="Databricks Spark&lt;br&gt;ADBAH" style="aspect=fixed;html=1;perimeter=none;align=center;shadow=0;dashed=0;image;fontSize=12;image=img/lib/mscae/Databricks.svg;" parent="1" vertex="1">
          <mxGeometry x="702" y="169" width="47.5" height="50" as="geometry" />
        </mxCell>
        <mxCell id="AWzvq9XBWHpSc_mT4nes-60" value="" style="edgeStyle=none;rounded=0;orthogonalLoop=1;jettySize=auto;html=1;entryX=0;entryY=0.76;entryDx=0;entryDy=0;entryPerimeter=0;" parent="1" source="AWzvq9XBWHpSc_mT4nes-63" target="AWzvq9XBWHpSc_mT4nes-51" edge="1" treatAsSingle="0">
          <mxGeometry relative="1" as="geometry" />
        </mxCell>
        <mxCell id="AWzvq9XBWHpSc_mT4nes-61" value="Query" style="edgeLabel;html=1;align=center;verticalAlign=middle;resizable=0;points=[];" parent="AWzvq9XBWHpSc_mT4nes-60" vertex="1" connectable="0">
          <mxGeometry x="-0.1305" y="-1" relative="1" as="geometry">
            <mxPoint as="offset" />
          </mxGeometry>
        </mxCell>
        <mxCell id="AWzvq9XBWHpSc_mT4nes-62" style="edgeStyle=none;rounded=0;orthogonalLoop=1;jettySize=auto;html=1;exitX=1;exitY=0;exitDx=0;exitDy=0;" parent="1" source="AWzvq9XBWHpSc_mT4nes-63" edge="1">
          <mxGeometry relative="1" as="geometry">
            <mxPoint x="728" y="221" as="targetPoint" />
          </mxGeometry>
        </mxCell>
        <mxCell id="X3BBekmKhfVBw8Z5o2lQ-1" value="Query" style="edgeLabel;html=1;align=center;verticalAlign=middle;resizable=0;points=[];" vertex="1" connectable="0" parent="AWzvq9XBWHpSc_mT4nes-62">
          <mxGeometry x="-0.1496" y="-1" relative="1" as="geometry">
            <mxPoint y="-1" as="offset" />
          </mxGeometry>
        </mxCell>
        <mxCell id="AWzvq9XBWHpSc_mT4nes-63" value="Azure Data Lake/Delta&#xa;" style="shape=image;verticalLabelPosition=bottom;labelBackgroundColor=#ffffff;verticalAlign=top;aspect=fixed;imageAspect=0;image=data:image/svg+xml,PHN2ZyB4bWxuczpkYz0iaHR0cDovL3B1cmwub3JnL2RjL2VsZW1lbnRzLzEuMS8iIHhtbG5zOmNjPSJodHRwOi8vY3JlYXRpdmVjb21tb25zLm9yZy9ucyMiIHhtbG5zOnJkZj0iaHR0cDovL3d3dy53My5vcmcvMTk5OS8wMi8yMi1yZGYtc3ludGF4LW5zIyIgeG1sbnM6c3ZnPSJodHRwOi8vd3d3LnczLm9yZy8yMDAwL3N2ZyIgeG1sbnM9Imh0dHA6Ly93d3cudzMub3JnLzIwMDAvc3ZnIiB4bWxuczpzb2RpcG9kaT0iaHR0cDovL3NvZGlwb2RpLnNvdXJjZWZvcmdlLm5ldC9EVEQvc29kaXBvZGktMC5kdGQiIHhtbG5zOmlua3NjYXBlPSJodHRwOi8vd3d3Lmlua3NjYXBlLm9yZy9uYW1lc3BhY2VzL2lua3NjYXBlIiB2ZXJzaW9uPSIxLjEiIGlkPSJzdmc3NjkyMyIgaW5rc2NhcGU6dmVyc2lvbj0iMC45Mi4zICgyNDA1NTQ2LCAyMDE4LTAzLTExKSIgc29kaXBvZGk6ZG9jbmFtZT0iZGF0YV9sYWtlLnN2ZyIgeD0iMHB4IiB5PSIwcHgiIHZpZXdCb3g9IjAgMCA1My43OCA3MS4xMyIgeG1sOnNwYWNlPSJwcmVzZXJ2ZSIgd2lkdGg9IjUzLjc3OTk5OSIgaGVpZ2h0PSI3MS4xMjk5OTciPjxtZXRhZGF0YSBpZD0ibWV0YWRhdGEyMjgyMyI+PHJkZjpSREY+PGNjOldvcmsgcmRmOmFib3V0PSIiPjxkYzpmb3JtYXQ+aW1hZ2Uvc3ZnK3htbDwvZGM6Zm9ybWF0PjxkYzp0eXBlIHJkZjpyZXNvdXJjZT0iaHR0cDovL3B1cmwub3JnL2RjL2RjbWl0eXBlL1N0aWxsSW1hZ2UiLz48ZGM6dGl0bGUvPjwvY2M6V29yaz48L3JkZjpSREY+PC9tZXRhZGF0YT48ZGVmcyBpZD0iZGVmczIyODIxIi8+JiN4YTs8ZmlsdGVyIGlkPSJmaWx0ZXJfMiI+JiN4YTsJPGZlR2F1c3NpYW5CbHVyIGlkPSJmZUdhdXNzaWFuQmx1cjc2ODMwIiBzdGREZXZpYXRpb249IjIiLz4mI3hhOzwvZmlsdGVyPiYjeGE7PHNvZGlwb2RpOm5hbWVkdmlldyBib3JkZXJjb2xvcj0iIzY2NjY2NiIgYm9yZGVyb3BhY2l0eT0iMSIgZml0LW1hcmdpbi1ib3R0b209IjAiIGZpdC1tYXJnaW4tbGVmdD0iMCIgZml0LW1hcmdpbi1yaWdodD0iMCIgZml0LW1hcmdpbi10b3A9IjAiIGdyaWR0b2xlcmFuY2U9IjEwIiBndWlkZXRvbGVyYW5jZT0iMTAiIGlkPSJuYW1lZHZpZXc3NjkyNSIgaW5rc2NhcGU6Y3VycmVudC1sYXllcj0ic3ZnNzY5MjMiIGlua3NjYXBlOmN4PSItNTUuMzI3MzQ3IiBpbmtzY2FwZTpjeT0iNDcuNzkxMTMzIiBpbmtzY2FwZTpwYWdlb3BhY2l0eT0iMCIgaW5rc2NhcGU6cGFnZXNoYWRvdz0iMiIgaW5rc2NhcGU6d2luZG93LWhlaWdodD0iMTAxNyIgaW5rc2NhcGU6d2luZG93LW1heGltaXplZD0iMSIgaW5rc2NhcGU6d2luZG93LXdpZHRoPSIxOTIwIiBpbmtzY2FwZTp3aW5kb3cteD0iLTgiIGlua3NjYXBlOndpbmRvdy15PSItOCIgaW5rc2NhcGU6em9vbT0iNC44MDg5OTYiIG9iamVjdHRvbGVyYW5jZT0iMTAiIHBhZ2Vjb2xvcj0iI2ZmZmZmZiIgc2hvd2dyaWQ9ImZhbHNlIj4mI3hhOwk8L3NvZGlwb2RpOm5hbWVkdmlldz4mI3hhOyYjeGE7PHBhdGggaWQ9InBhdGg3Njg0NSIgaW5rc2NhcGU6Y29ubmVjdG9yLWN1cnZhdHVyZT0iMCIgc3R5bGU9ImZpbGw6IzNlM2UzZSIgZD0ibSAwLDkuNjggdiA1MS42NCBjIDAsNS40IDExLjk1LDkuNjcgMjYuODksOS42NyBWIDkuNjggWiIvPiYjeGE7JiN4YTs8cGF0aCBpZD0icGF0aDc2ODUzIiBpbmtzY2FwZTpjb25uZWN0b3ItY3VydmF0dXJlPSIwIiBzdHlsZT0iZmlsbDojYTBhMWEyIiBkPSJtIDI2LjQ2LDcxLjEzIGggMC40MyBjIDE0Ljc5LDAgMjYuODgsLTQuNDEgMjYuODgsLTkuNjcgViA5LjY3IEggMjYuNDYgWiIvPiYjeGE7JiN4YTs8cGF0aCBpZD0icGF0aDc2ODYxIiBpbmtzY2FwZTpjb25uZWN0b3ItY3VydmF0dXJlPSIwIiBzdHlsZT0iZmlsbDojZmZmZmZmIiBkPSJtIDUzLjc4LDkuNjggYyAwLDUuNCAtMTEuOTUsOS42NyAtMjYuODksOS42NyBDIDExLjk1LDE5LjM1IDAsMTUuMDggMCw5LjY4IDAsNC40MSAxMi4wOSwwIDI2Ljg5LDAgNDEuNjgsMCA1My43OCw0LjQxIDUzLjc4LDkuNjggWiIvPiYjeGE7JiN4YTs8cGF0aCBpZD0icGF0aDc2ODY5IiBpbmtzY2FwZTpjb25uZWN0b3ItY3VydmF0dXJlPSIwIiBzdHlsZT0iZmlsbDojN2ZiYTAwIiBkPSJtIDQ4LjIzLDkuMTEgYyAwLDMuNTYgLTkuNTMsNi40IC0yMS4zNCw2LjQgLTExLjgxLDAgLTIxLjM0LC0yLjg0IC0yMS4zNCwtNi40IDAsLTMuNTYgOS41MywtNi40IDIxLjM0LC02LjQgMTEuODEsMCAyMS4zNCwyLjg0IDIxLjM0LDYuNCB6Ii8+JiN4YTsmI3hhOzxwYXRoIGlkPSJwYXRoNzY4NzciIGlua3NjYXBlOmNvbm5lY3Rvci1jdXJ2YXR1cmU9IjAiIHN0eWxlPSJmaWxsOiNiOGQ0MzIiIGQ9Im0gNDMuODIsMTMuMDkgYyAyLjg0LC0xLjE0IDQuNDEsLTIuNDIgNC40MSwtMy45OCAwLC0zLjU2IC05LjUzLC02LjQgLTIxLjM0LC02LjQgLTExLjgxLDAgLTIxLjM0LDIuODQgLTIxLjM0LDYuNCAwLDEuNDIgMS43MSwyLjg0IDQuNDEsMy45OCAzLjg0LC0xLjU2IDkuOTYsLTIuNTYgMTYuOTMsLTIuNTYgNi44MywwIDEyLjk1LDEgMTYuOTMsMi41NiB6Ii8+JiN4YTsmI3hhOzxwYXRoIGlkPSJwYXRoNzY4ODgiIGlua3NjYXBlOmNvbm5lY3Rvci1jdXJ2YXR1cmU9IjAiIHN0eWxlPSJmaWxsOiMzOTk5YzYiIGQ9Ik0gMjYuNDYsNzEuMTMgViA0NS41MiBjIC0zLjk4LDAgLTcuNCwtMi4xMyAtOS4zOSwtNS4yNiAtMS45OSwzLjEzIC01LjI2LDUuMjYgLTkuMjUsNS4yNiAtMy4xMywwIC01LjgzLC0xLjI4IC03LjgyLC0zLjQxIHYgMTkuMzUgYyAwLDUuMjYgMTEuODEsOS41MyAyNi40Niw5LjY3IHoiLz4mI3hhOzxnIGlkPSJzaGFkb3c1MTA2LTM1IiB0cmFuc2Zvcm09InRyYW5zbGF0ZSgtNTIuNzY2OCwtMjIuNTAzNzU0KSI+JiN4YTs8L2c+JiN4YTsmI3hhOyYjeGE7JiN4YTs8cGF0aCBpZD0icGF0aDc2OTA4IiBpbmtzY2FwZTpjb25uZWN0b3ItY3VydmF0dXJlPSIwIiBzdHlsZT0iZmlsbDojNTliNGQ5IiBkPSJtIDQ1LjUzLDQ1LjUyIGMgLTMuOTgsMCAtNy41NCwtMi4xMyAtOS41MywtNS4yNiAtMS44NSwzLjEzIC01LjI3LDUuMTIgLTkuMjUsNS4yNiB2IDI1LjYxIGMgMTQuOCwwIDI2Ljg5LC00LjQxIDI2Ljg5LC05LjY3IFYgNDEuOTcgYyAtMS45OSwyLjEzIC00Ljg0LDMuNTUgLTguMTEsMy41NSB6Ii8+JiN4YTsmI3hhOyYjeGE7PC9zdmc+;" parent="1" vertex="1">
          <mxGeometry x="528" y="361" width="46.07" height="60" as="geometry" />
        </mxCell>
        <mxCell id="AWzvq9XBWHpSc_mT4nes-64" value="SQL/ Python/ &lt;br&gt;R /Scala" style="pointerEvents=1;shadow=0;dashed=0;html=1;strokeColor=none;labelPosition=center;verticalLabelPosition=bottom;verticalAlign=top;outlineConnect=0;align=center;shape=mxgraph.office.users.users;fillColor=#2072B8;" parent="1" vertex="1">
          <mxGeometry x="850" y="179" width="46" height="40" as="geometry" />
        </mxCell>
        <mxCell id="AWzvq9XBWHpSc_mT4nes-65" value="Azure Cloud" style="verticalLabelPosition=bottom;html=1;verticalAlign=top;align=center;strokeColor=none;fillColor=#00BEF2;shape=mxgraph.azure.azure_subscription;rounded=0;" parent="1" vertex="1">
          <mxGeometry x="894" y="106" width="50" height="35" as="geometry" />
        </mxCell>
        <mxCell id="AWzvq9XBWHpSc_mT4nes-66" value="Azure Key-Vault" style="shape=image;verticalLabelPosition=bottom;labelBackgroundColor=#ffffff;verticalAlign=top;aspect=fixed;imageAspect=0;image=data:image/svg+xml,PHN2ZyB4bWxuczpkYz0iaHR0cDovL3B1cmwub3JnL2RjL2VsZW1lbnRzLzEuMS8iIHhtbG5zOmNjPSJodHRwOi8vY3JlYXRpdmVjb21tb25zLm9yZy9ucyMiIHhtbG5zOnJkZj0iaHR0cDovL3d3dy53My5vcmcvMTk5OS8wMi8yMi1yZGYtc3ludGF4LW5zIyIgeG1sbnM6c3ZnPSJodHRwOi8vd3d3LnczLm9yZy8yMDAwL3N2ZyIgeG1sbnM9Imh0dHA6Ly93d3cudzMub3JnLzIwMDAvc3ZnIiB4bWxuczpzb2RpcG9kaT0iaHR0cDovL3NvZGlwb2RpLnNvdXJjZWZvcmdlLm5ldC9EVEQvc29kaXBvZGktMC5kdGQiIHhtbG5zOmlua3NjYXBlPSJodHRwOi8vd3d3Lmlua3NjYXBlLm9yZy9uYW1lc3BhY2VzL2lua3NjYXBlIiB2ZXJzaW9uPSIxLjEiIGlkPSJzdmc4MjQ1OSIgaW5rc2NhcGU6dmVyc2lvbj0iMC45Mi4zICgyNDA1NTQ2LCAyMDE4LTAzLTExKSIgc29kaXBvZGk6ZG9jbmFtZT0ia2V5X3ZhdWx0LnN2ZyIgeD0iMHB4IiB5PSIwcHgiIHZpZXdCb3g9IjAgMCA4OS42OSAxMDAuMTEiIHN0eWxlPSJlbmFibGUtYmFja2dyb3VuZDpuZXcgMCAwIDg5LjY5IDEwMC4xMTsiIHhtbDpzcGFjZT0icHJlc2VydmUiPjxtZXRhZGF0YSBpZD0ibWV0YWRhdGEyMzQ4Ij48cmRmOlJERj48Y2M6V29yayByZGY6YWJvdXQ9IiI+PGRjOmZvcm1hdD5pbWFnZS9zdmcreG1sPC9kYzpmb3JtYXQ+PGRjOnR5cGUgcmRmOnJlc291cmNlPSJodHRwOi8vcHVybC5vcmcvZGMvZGNtaXR5cGUvU3RpbGxJbWFnZSIvPjxkYzp0aXRsZS8+PC9jYzpXb3JrPjwvcmRmOlJERj48L21ldGFkYXRhPjxkZWZzIGlkPSJkZWZzMjM0NiIvPiYjeGE7PGZpbHRlciBpZD0iZmlsdGVyXzIiPiYjeGE7CTxmZUdhdXNzaWFuQmx1ciBpZD0iZmVHYXVzc2lhbkJsdXI4MjQzMiIgc3RkRGV2aWF0aW9uPSIyIi8+JiN4YTs8L2ZpbHRlcj4mI3hhOzxzb2RpcG9kaTpuYW1lZHZpZXcgYm9yZGVyY29sb3I9IiM2NjY2NjYiIGJvcmRlcm9wYWNpdHk9IjEiIGZpdC1tYXJnaW4tYm90dG9tPSIwIiBmaXQtbWFyZ2luLWxlZnQ9IjAiIGZpdC1tYXJnaW4tcmlnaHQ9IjAiIGZpdC1tYXJnaW4tdG9wPSIwIiBncmlkdG9sZXJhbmNlPSIxMCIgZ3VpZGV0b2xlcmFuY2U9IjEwIiBpZD0ibmFtZWR2aWV3ODI0NjEiIGlua3NjYXBlOmN1cnJlbnQtbGF5ZXI9InN2ZzgyNDU5IiBpbmtzY2FwZTpjeD0iNzMuODY0NzI3IiBpbmtzY2FwZTpjeT0iNTIuMzM5MjAxIiBpbmtzY2FwZTpwYWdlb3BhY2l0eT0iMCIgaW5rc2NhcGU6cGFnZXNoYWRvdz0iMiIgaW5rc2NhcGU6d2luZG93LWhlaWdodD0iMTAxNyIgaW5rc2NhcGU6d2luZG93LW1heGltaXplZD0iMSIgaW5rc2NhcGU6d2luZG93LXdpZHRoPSIxOTIwIiBpbmtzY2FwZTp3aW5kb3cteD0iLTgiIGlua3NjYXBlOndpbmRvdy15PSItOCIgaW5rc2NhcGU6em9vbT0iMy42OTA2MTY0IiBvYmplY3R0b2xlcmFuY2U9IjEwIiBwYWdlY29sb3I9IiNmZmZmZmYiIHNob3dncmlkPSJmYWxzZSI+JiN4YTsJPC9zb2RpcG9kaTpuYW1lZHZpZXc+JiN4YTsmI3hhOzxwYXRoIGlkPSJwYXRoODI0NDUiIGlua3NjYXBlOmNvbm5lY3Rvci1jdXJ2YXR1cmU9IjAiIHN0eWxlPSJmaWxsOiM3RkJBMDA7IiBkPSJNODkuNjksNTUuMjZjMC0xNC42Mi03LTI3LjQzLTE3LjYxLTM1LjY0ICBjMCwwLjQsMCwxLDAsMS40YzAsNC40MS0xLjIxLDguNjEtMy4wMSwxMi4yMWM1LjIxLDUuODEsOC40MSwxMy40Miw4LjQxLDIxLjgzYzAsMTguMDItMTQuNjEsMzIuNjMtMzIuNjMsMzIuNjMgIFMxMi4yMSw3My4wOCwxMi4yMSw1NS4wNmMwLTkuMDEsMy42MS0xNy4wMiw5LjQxLTIzLjAzYy0xLjYtMy40LTIuNi03LjItMi42LTExLjIxYzAtMC44LDAtMS44LDAuMi0yLjZDNy42MSwyNi4yMywwLDM5Ljg0LDAsNTUuMDYgIGMwLDI1LjAyLDIwLjAyLDQ1LjA1LDQ0Ljg1LDQ1LjA1QzY5LjY3LDEwMC4xMSw4OS42OSw4MC4wOCw4OS42OSw1NS4yNnoiLz4mI3hhOyYjeGE7PHBhdGggaWQ9InBhdGg4MjQ1MyIgaW5rc2NhcGU6Y29ubmVjdG9yLWN1cnZhdHVyZT0iMCIgc3R5bGU9ImZpbGw6I0ZDRDExNjsiIGQ9Ik00NS40NSwwQzM0LjA0LDAsMjQuODMsOS4yMSwyNC44MywyMC42MiAgYzAsOS40MSw2LjIxLDE3LjIyLDE0LjgyLDE5LjgydjIwLjQzaC05LjYxdjEwLjQxaDkuNjF2Ny42MWgxMS40MVY0MC4yNGM4LjYxLTIuNCwxNC44MS0xMC40MSwxNC44MS0xOS44MiAgQzY2LjA3LDkuMjEsNTYuODYsMCw0NS40NSwweiBNNDUuNDUsMTAuODFjNS40MSwwLDkuODEsNC40MSw5LjgxLDkuODFjMCw1LjQxLTQuNCw5LjgxLTkuODEsOS44MWMtNS40LDAtOS44MS00LjQtOS44MS05LjgxICBDMzUuNjQsMTUuMjIsNDAuMDUsMTAuODEsNDUuNDUsMTAuODF6Ii8+JiN4YTs8L3N2Zz4=;rounded=0;html=1;" parent="1" vertex="1">
          <mxGeometry x="178" y="430" width="45" height="50" as="geometry" />
        </mxCell>
        <mxCell id="AWzvq9XBWHpSc_mT4nes-67" style="edgeStyle=none;rounded=0;orthogonalLoop=1;jettySize=auto;html=1;entryX=0;entryY=0.75;entryDx=0;entryDy=0;" parent="1" source="AWzvq9XBWHpSc_mT4nes-68" target="AWzvq9XBWHpSc_mT4nes-56" edge="1">
          <mxGeometry relative="1" as="geometry" />
        </mxCell>
        <mxCell id="AWzvq9XBWHpSc_mT4nes-68" value="Self Hosted Run time VM&amp;nbsp;" style="shape=image;verticalLabelPosition=bottom;labelBackgroundColor=#ffffff;verticalAlign=top;aspect=fixed;imageAspect=0;image=data:image/svg+xml,PHN2ZyB4bWxuczpjYz0iaHR0cDovL2NyZWF0aXZlY29tbW9ucy5vcmcvbnMjIiB4bWxuczpkYz0iaHR0cDovL3B1cmwub3JnL2RjL2VsZW1lbnRzLzEuMS8iIHhtbG5zOmlua3NjYXBlPSJodHRwOi8vd3d3Lmlua3NjYXBlLm9yZy9uYW1lc3BhY2VzL2lua3NjYXBlIiB4bWxuczpyZGY9Imh0dHA6Ly93d3cudzMub3JnLzE5OTkvMDIvMjItcmRmLXN5bnRheC1ucyMiIHhtbG5zOnNvZGlwb2RpPSJodHRwOi8vc29kaXBvZGkuc291cmNlZm9yZ2UubmV0L0RURC9zb2RpcG9kaS0wLmR0ZCIgeG1sbnM6c3ZnPSJodHRwOi8vd3d3LnczLm9yZy8yMDAwL3N2ZyIgeG1sbnM9Imh0dHA6Ly93d3cudzMub3JnLzIwMDAvc3ZnIiB4bWxuczp4bGluaz0iaHR0cDovL3d3dy53My5vcmcvMTk5OS94bGluayIgdmVyc2lvbj0iMS4xIiBpZD0ic3ZnMTAxMTQwIiBpbmtzY2FwZTp2ZXJzaW9uPSIwLjkyLjMgKDI0MDU1NDYsIDIwMTgtMDMtMTEpIiBzb2RpcG9kaTpkb2NuYW1lPSJ2aXJ0dWFsX21hY2hpbmVfc2NhbGVfc2V0c192bV9pbWFnZXMuc3ZnIiB4PSIwcHgiIHk9IjBweCIgdmlld0JveD0iMCAwIDI0Ljc1IDI0LjczIiBzdHlsZT0iZW5hYmxlLWJhY2tncm91bmQ6bmV3IDAgMCAyNC43NSAyNC43MzsiIHhtbDpzcGFjZT0icHJlc2VydmUiPiYjeGE7PHNvZGlwb2RpOm5hbWVkdmlldyBib3JkZXJjb2xvcj0iIzY2NjY2NiIgYm9yZGVyb3BhY2l0eT0iMSIgZml0LW1hcmdpbi1ib3R0b209IjAiIGZpdC1tYXJnaW4tbGVmdD0iMCIgZml0LW1hcmdpbi1yaWdodD0iMCIgZml0LW1hcmdpbi10b3A9IjAiIGdyaWR0b2xlcmFuY2U9IjEwIiBndWlkZXRvbGVyYW5jZT0iMTAiIGlkPSJuYW1lZHZpZXcxMDExNDIiIGlua3NjYXBlOmN1cnJlbnQtbGF5ZXI9InN2ZzEwMTE0MCIgaW5rc2NhcGU6Y3g9IjE5LjExNjkiIGlua3NjYXBlOmN5PSI4Ljc3NTgxOCIgaW5rc2NhcGU6cGFnZW9wYWNpdHk9IjAiIGlua3NjYXBlOnBhZ2VzaGFkb3c9IjIiIGlua3NjYXBlOndpbmRvdy1oZWlnaHQ9IjEwMTciIGlua3NjYXBlOndpbmRvdy1tYXhpbWl6ZWQ9IjEiIGlua3NjYXBlOndpbmRvdy13aWR0aD0iMTkyMCIgaW5rc2NhcGU6d2luZG93LXg9Ii04IiBpbmtzY2FwZTp3aW5kb3cteT0iLTgiIGlua3NjYXBlOnpvb209IjEzLjE0NjY5IiBvYmplY3R0b2xlcmFuY2U9IjEwIiBwYWdlY29sb3I9IiNmZmZmZmYiIHNob3dncmlkPSJmYWxzZSI+JiN4YTsJPC9zb2RpcG9kaTpuYW1lZHZpZXc+JiN4YTs8ZyBpZD0iZzEwMTEzOCIgdHJhbnNmb3JtPSJ0cmFuc2xhdGUoLTIuMDM0MTQ0OGUtNSwtNGUtNCkiPiYjeGE7CTx0aXRsZSBpZD0idGl0bGUxMDEwNDciPlBhZ2UtMTwvdGl0bGU+JiN4YTsJPGcgaWQ9Imdyb3VwNDU3OS0xIj4mI3hhOwkJPHRpdGxlIGlkPSJ0aXRsZTEwMTA0OSI+VmlydHVhbCBNYWNoaW5lIFNjYWxlIFNldHMgKFZNIEltYWdlcyk8L3RpdGxlPiYjeGE7CQk8ZyBpZD0iZ3JvdXA0NTgwLTIiIHRyYW5zZm9ybT0idHJhbnNsYXRlKDAsLTExLjE3OTYpIj4mI3hhOwkJCTx0aXRsZSBpZD0idGl0bGUxMDEwNTEiPlNoZWV0LjQ1ODA8L3RpdGxlPiYjeGE7CQkJPGcgaWQ9InNoYXBlNDU4MS0zIiB0cmFuc2Zvcm09InRyYW5zbGF0ZSgxLjI4MDc0LC0wLjk4ODYxOCkiPiYjeGE7CQkJCTx0aXRsZSBpZD0idGl0bGUxMDEwNTMiPlNoZWV0LjQ1ODE8L3RpdGxlPiYjeGE7CQkJCTxwYXRoIGlkPSJwYXRoMTAxMDU1IiBpbmtzY2FwZTpjb25uZWN0b3ItY3VydmF0dXJlPSIwIiBzdHlsZT0iZmlsbDojMDBCQkYxOyIgZD0iTTE2LjE4LDEzLjMydjExLjQxSDBWMTMuMzJsMTYuMi0wLjAzICAgICAgTDE2LjE4LDEzLjMyeiIvPiYjeGE7CQkJPC9nPiYjeGE7CQkJPGcgaWQ9InNoYXBlNDU4Mi01Ij4mI3hhOwkJCQk8dGl0bGUgaWQ9InRpdGxlMTAxMDU4Ij5TaGVldC40NTgyPC90aXRsZT4mI3hhOwkJCQk8cGF0aCBpZD0icGF0aDEwMTA2MCIgaW5rc2NhcGU6Y29ubmVjdG9yLWN1cnZhdHVyZT0iMCIgc3R5bGU9ImZpbGw6I0M1QzVDNTsiIGQ9Ik0xNy4xOCwxMS4xOGMtMTYuMTUsMC0xNi4xNSwwLTE2LjE1LDAgICAgICBjLTAuNTcsMC0xLjAzLDAuNS0xLjAzLDEuMDhDMCwyMy43LDAsMjMuNywwLDIzLjdjMCwwLjU3LDAuNDYsMS4wMywxLjAzLDEuMDNjMTYuMTUsMCwxNi4xNSwwLDE2LjE1LDAgICAgICBjMC41NiwwLDEuMTItMC40NiwxLjEyLTEuMDNjMC0xMS40NCwwLTExLjQ0LDAtMTEuNDRDMTguMywxMS42OCwxNy43NCwxMS4xOCwxNy4xOCwxMS4xOHogTTE2LjksMTIuNjFjMCwxMC43LDAsMTAuNywwLDEwLjcgICAgICBjLTE1LjQ5LDAtMTUuNDksMC0xNS40OSwwYzAtMTAuNywwLTEwLjcsMC0xMC43YzE1LjUzLTAuMDMsMTUuNTMtMC4wMywxNS41My0wLjAzTDE2LjksMTIuNjF6Ii8+JiN4YTsJCQk8L2c+JiN4YTsJCQk8ZyBpZD0ic2hhcGU0NTgzLTciIHRyYW5zZm9ybT0idHJhbnNsYXRlKDUuODU0ODIsLTYuOTU4NjEpIj4mI3hhOwkJCQk8dGl0bGUgaWQ9InRpdGxlMTAxMDYzIj5TaGVldC40NTgzPC90aXRsZT4mI3hhOwkJCQk8cGF0aCBpZD0icGF0aDEwMTA2NSIgaW5rc2NhcGU6Y29ubmVjdG9yLWN1cnZhdHVyZT0iMCIgc3R5bGU9ImZpbGw6I0U2RjhGRTsiIGQ9Ik0zLjI5LDIwLjg5Yy0wLjAzLDAtMC4wMywwLTAuMDcsMCAgICAgIGMtMy4xNywxLjg0LTMuMTcsMS44NC0zLjE3LDEuODRDMCwyMi43MywwLDIyLjc2LDAsMjIuOGMwLDAuMDMsMCwwLjA3LDAuMDUsMC4xYzMuMjEsMS44MywzLjIxLDEuODMsMy4yMSwxLjgzaDAuMDMgICAgICBjMC4wNSwwLDAuMDUsMCwwLjA4LDBjMy4xOC0xLjgzLDMuMTgtMS44MywzLjE4LTEuODNjMC4wNCwwLDAuMDQtMC4wMywwLjA0LTAuMDdjMC0wLjAzLDAtMC4wNy0wLjA0LTAuMSAgICAgIGMtMy4yMS0xLjg0LTMuMjEtMS44NC0zLjIxLTEuODRTMy4yOSwyMC44OSwzLjI5LDIwLjg5eiIvPiYjeGE7CQkJPC9nPiYjeGE7CQkJPGcgaWQ9InNoYXBlNDU4NC05IiB0cmFuc2Zvcm09InRyYW5zbGF0ZSg1LjMwNTkzLC0yLjM4MDU4KSI+JiN4YTsJCQkJPHRpdGxlIGlkPSJ0aXRsZTEwMTA2OCI+U2hlZXQuNDU4NDwvdGl0bGU+JiN4YTsJCQkJPHBhdGggaWQ9InBhdGgxMDEwNzAiIGlua3NjYXBlOmNvbm5lY3Rvci1jdXJ2YXR1cmU9IjAiIHN0eWxlPSJmaWxsOiNDQ0YxRkM7IiBkPSJNMC4xMSwxOC44N2MtMC4wMywwLTAuMDMsMC0wLjA2LDAgICAgICBDMCwxOC44NywwLDE4LjkyLDAsMTguOTVjMCwzLjc5LDAsMy43OSwwLDMuNzljMCwwLjAzLDAsMC4wNywwLjA1LDAuMWMzLjI5LDEuODYsMy4yOSwxLjg2LDMuMjksMS44NiAgICAgIGMwLDAuMDMsMC4wMywwLjAzLDAuMDMsMC4wM2MwLjA0LDAsMC4wNCwwLDAuMDctMC4wM2MwLDAsMC4wNC0wLjA0LDAuMDQtMC4wN2MwLTMuNzksMC0zLjc5LDAtMy43OWMwLTAuMDQtMC4wNC0wLjA3LTAuMDQtMC4wNyAgICAgIGMtMy4yOS0xLjktMy4yOS0xLjktMy4yOS0xLjlTMC4xMSwxOC44NywwLjExLDE4Ljg3eiIvPiYjeGE7CQkJPC9nPiYjeGE7CQkJPGcgaWQ9InNoYXBlNDU4NS0xMSIgdHJhbnNmb3JtPSJ0cmFuc2xhdGUoOS41MTQwOCwtMi4zODA1OCkiPiYjeGE7CQkJCTx0aXRsZSBpZD0idGl0bGUxMDEwNzMiPlNoZWV0LjQ1ODU8L3RpdGxlPiYjeGE7CQkJCTxwYXRoIGlkPSJwYXRoMTAxMDc1IiBpbmtzY2FwZTpjb25uZWN0b3ItY3VydmF0dXJlPSIwIiBzdHlsZT0iZmlsbDojODBEREY4OyIgZD0iTTMuMiwxOC44N2MwLDAtMC4wMywwLTAuMDMsMC4wNSAgICAgIGMtMy4xLDEuODUtMy4xLDEuODUtMy4xLDEuODVDMC4wMywyMC44LDAsMjAuODQsMCwyMC44N2MwLDMuNzYsMCwzLjc2LDAsMy43NmMwLDAuMDMsMC4wMywwLjA3LDAuMDcsMC4wNyAgICAgIGMwLDAuMDMsMCwwLjAzLDAuMDMsMC4wM2MwLDAsMC4wNCwwLDAuMDQtMC4wM2MzLjEyLTEuODYsMy4xMi0xLjg2LDMuMTItMS44NmMwLjAzLTAuMDMsMC4wMy0wLjA3LDAuMDMtMC4xICAgICAgYzAtMy43NSwwLTMuNzUsMC0zLjc1YzAtMC4wNCwwLTAuMDctMC4wMy0wLjA3QzMuMjQsMTguODcsMy4yNCwxOC44NywzLjIsMTguODd6Ii8+JiN4YTsJCQk8L2c+JiN4YTsJCTwvZz4mI3hhOwkJPGcgaWQ9Imdyb3VwNDU4Ni0xMyIgdHJhbnNmb3JtPSJ0cmFuc2xhdGUoMy4xNTYyMywtNy4yNzkxMykiPiYjeGE7CQkJPHRpdGxlIGlkPSJ0aXRsZTEwMTA3OSI+U2hlZXQuNDU4NjwvdGl0bGU+JiN4YTsJCQk8ZyBpZD0ic2hhcGU0NTg3LTE0IiB0cmFuc2Zvcm09InRyYW5zbGF0ZSgxLjI4MDc0LC0wLjk4ODYxOCkiPiYjeGE7CQkJCTx0aXRsZSBpZD0idGl0bGUxMDEwODEiPlNoZWV0LjQ1ODc8L3RpdGxlPiYjeGE7CQkJCTxwYXRoIGlkPSJwYXRoMTAxMDgzIiBpbmtzY2FwZTpjb25uZWN0b3ItY3VydmF0dXJlPSIwIiBzdHlsZT0iZmlsbDojMDBCQkYxOyIgZD0iTTE2LjE4LDEzLjMydjExLjQxSDBWMTMuMzJsMTYuMi0wLjAzICAgICAgTDE2LjE4LDEzLjMyeiIvPiYjeGE7CQkJPC9nPiYjeGE7CQkJPGcgaWQ9InNoYXBlNDU4OC0xNiI+JiN4YTsJCQkJPHRpdGxlIGlkPSJ0aXRsZTEwMTA4NiI+U2hlZXQuNDU4ODwvdGl0bGU+JiN4YTsJCQkJPHBhdGggaWQ9InBhdGgxMDEwODgiIGlua3NjYXBlOmNvbm5lY3Rvci1jdXJ2YXR1cmU9IjAiIHN0eWxlPSJmaWxsOiNDNUM1QzU7IiBkPSJNMTcuMTgsMTEuMThjLTE2LjE1LDAtMTYuMTUsMC0xNi4xNSwwICAgICAgYy0wLjU3LDAtMS4wMywwLjUtMS4wMywxLjA4QzAsMjMuNywwLDIzLjcsMCwyMy43YzAsMC41NywwLjQ2LDEuMDMsMS4wMywxLjAzYzE2LjE1LDAsMTYuMTUsMCwxNi4xNSwwICAgICAgYzAuNTYsMCwxLjEyLTAuNDYsMS4xMi0xLjAzYzAtMTEuNDQsMC0xMS40NCwwLTExLjQ0QzE4LjMsMTEuNjgsMTcuNzQsMTEuMTgsMTcuMTgsMTEuMTh6IE0xNi45LDEyLjYxYzAsMTAuNywwLDEwLjcsMCwxMC43ICAgICAgYy0xNS40OSwwLTE1LjQ5LDAtMTUuNDksMGMwLTEwLjcsMC0xMC43LDAtMTAuN2MxNS41My0wLjAzLDE1LjUzLTAuMDMsMTUuNTMtMC4wM0wxNi45LDEyLjYxeiIvPiYjeGE7CQkJPC9nPiYjeGE7CQkJPGcgaWQ9InNoYXBlNDU4OS0xOCIgdHJhbnNmb3JtPSJ0cmFuc2xhdGUoNS44NTQ4MiwtNi45NTg2MSkiPiYjeGE7CQkJCTx0aXRsZSBpZD0idGl0bGUxMDEwOTEiPlNoZWV0LjQ1ODk8L3RpdGxlPiYjeGE7CQkJCTxwYXRoIGlkPSJwYXRoMTAxMDkzIiBpbmtzY2FwZTpjb25uZWN0b3ItY3VydmF0dXJlPSIwIiBzdHlsZT0iZmlsbDojRTZGOEZFOyIgZD0iTTMuMjksMjAuODljLTAuMDMsMC0wLjAzLDAtMC4wNywwICAgICAgYy0zLjE3LDEuODQtMy4xNywxLjg0LTMuMTcsMS44NEMwLDIyLjczLDAsMjIuNzYsMCwyMi44YzAsMC4wMywwLDAuMDcsMC4wNSwwLjFjMy4yMSwxLjgzLDMuMjEsMS44MywzLjIxLDEuODNoMC4wMyAgICAgIGMwLjA1LDAsMC4wNSwwLDAuMDgsMGMzLjE4LTEuODMsMy4xOC0xLjgzLDMuMTgtMS44M2MwLjA0LDAsMC4wNC0wLjAzLDAuMDQtMC4wN2MwLTAuMDMsMC0wLjA3LTAuMDQtMC4xICAgICAgYy0zLjIxLTEuODQtMy4yMS0xLjg0LTMuMjEtMS44NFMzLjI5LDIwLjg5LDMuMjksMjAuODl6Ii8+JiN4YTsJCQk8L2c+JiN4YTsJCQk8ZyBpZD0ic2hhcGU0NTkwLTIwIiB0cmFuc2Zvcm09InRyYW5zbGF0ZSg1LjMwNTkzLC0yLjM4MDU4KSI+JiN4YTsJCQkJPHRpdGxlIGlkPSJ0aXRsZTEwMTA5NiI+U2hlZXQuNDU5MDwvdGl0bGU+JiN4YTsJCQkJPHBhdGggaWQ9InBhdGgxMDEwOTgiIGlua3NjYXBlOmNvbm5lY3Rvci1jdXJ2YXR1cmU9IjAiIHN0eWxlPSJmaWxsOiNDQ0YxRkM7IiBkPSJNMC4xMSwxOC44N2MtMC4wMywwLTAuMDMsMC0wLjA2LDAgICAgICBDMCwxOC44NywwLDE4LjkyLDAsMTguOTVjMCwzLjc5LDAsMy43OSwwLDMuNzljMCwwLjAzLDAsMC4wNywwLjA1LDAuMWMzLjI5LDEuODYsMy4yOSwxLjg2LDMuMjksMS44NiAgICAgIGMwLDAuMDMsMC4wMywwLjAzLDAuMDMsMC4wM2MwLjA0LDAsMC4wNCwwLDAuMDctMC4wM2MwLDAsMC4wNC0wLjA0LDAuMDQtMC4wN2MwLTMuNzksMC0zLjc5LDAtMy43OWMwLTAuMDQtMC4wNC0wLjA3LTAuMDQtMC4wNyAgICAgIGMtMy4yOS0xLjktMy4yOS0xLjktMy4yOS0xLjlTMC4xMSwxOC44NywwLjExLDE4Ljg3eiIvPiYjeGE7CQkJPC9nPiYjeGE7CQkJPGcgaWQ9InNoYXBlNDU5MS0yMiIgdHJhbnNmb3JtPSJ0cmFuc2xhdGUoOS41MTQwOCwtMi4zODA1OCkiPiYjeGE7CQkJCTx0aXRsZSBpZD0idGl0bGUxMDExMDEiPlNoZWV0LjQ1OTE8L3RpdGxlPiYjeGE7CQkJCTxwYXRoIGlkPSJwYXRoMTAxMTAzIiBpbmtzY2FwZTpjb25uZWN0b3ItY3VydmF0dXJlPSIwIiBzdHlsZT0iZmlsbDojODBEREY4OyIgZD0iTTMuMiwxOC44N2MwLDAtMC4wMywwLTAuMDMsMC4wNSAgICAgIGMtMy4xLDEuODUtMy4xLDEuODUtMy4xLDEuODVDMC4wMywyMC44LDAsMjAuODQsMCwyMC44N2MwLDMuNzYsMCwzLjc2LDAsMy43NmMwLDAuMDMsMC4wMywwLjA3LDAuMDcsMC4wNyAgICAgIGMwLDAuMDMsMCwwLjAzLDAuMDMsMC4wM2MwLDAsMC4wNCwwLDAuMDQtMC4wM2MzLjEyLTEuODYsMy4xMi0xLjg2LDMuMTItMS44NmMwLjAzLTAuMDMsMC4wMy0wLjA3LDAuMDMtMC4xICAgICAgYzAtMy43NSwwLTMuNzUsMC0zLjc1YzAtMC4wNCwwLTAuMDctMC4wMy0wLjA3QzMuMjQsMTguODcsMy4yNCwxOC44NywzLjIsMTguODd6Ii8+JiN4YTsJCQk8L2c+JiN4YTsJCTwvZz4mI3hhOwkJPGcgaWQ9InNoYXBlNDU5Mi0yNCIgdHJhbnNmb3JtPSJ0cmFuc2xhdGUoNy43MzQ0MywtNC40Njc5MikiPiYjeGE7CQkJPHRpdGxlIGlkPSJ0aXRsZTEwMTEwNyI+U2hlZXQuNDU5MjwvdGl0bGU+JiN4YTsJCQk8cGF0aCBpZD0icGF0aDEwMTEwOSIgaW5rc2NhcGU6Y29ubmVjdG9yLWN1cnZhdHVyZT0iMCIgc3R5bGU9ImZpbGw6IzAwQkJGMTsiIGQ9Ik0xNi4xOCwxMy4zMnYxMS40MUgwVjEzLjMybDE2LjItMC4wMyAgICAgTDE2LjE4LDEzLjMyeiIvPiYjeGE7CQk8L2c+JiN4YTsJCTxnIGlkPSJzaGFwZTQ1OTMtMjYiIHRyYW5zZm9ybT0idHJhbnNsYXRlKDkuNTY0MDYpIj4mI3hhOwkJCTx0aXRsZSBpZD0idGl0bGUxMDExMTIiPlNoZWV0LjQ1OTM8L3RpdGxlPiYjeGE7CQkJPHBhdGggaWQ9InBhdGgxMDExMTQiIGlua3NjYXBlOmNvbm5lY3Rvci1jdXJ2YXR1cmU9IjAiIHN0eWxlPSJmaWxsOiM5MTkxOTE7IiBkPSJNOC43OCwyMS4yNWMtMC40NiwwLTAuNDYsMC0wLjQ2LDAgICAgIGMtNC4zMiwwLTQuMzIsMC00LjMyLDBjLTAuMjQsMC0wLjI0LDAtMC4yNCwwYzAuNiwyLjEtMC4yMiwyLjQtMy43NiwyLjRjMCwxLjA4LDAsMS4wOCwwLDEuMDhjNC41NCwwLDQuNTQsMCw0LjU0LDAgICAgIGMzLjI5LDAsMy4yOSwwLDMuMjksMGM0LjI1LDAsNC4yNSwwLDQuMjUsMGMwLTEuMDgsMC0xLjA4LDAtMS4wOEM4LjU0LDIzLjY1LDguMTksMjMuMzUsOC43OCwyMS4yNXoiLz4mI3hhOwkJPC9nPiYjeGE7CQk8ZyBpZD0ic2hhcGU0NTk0LTI4IiB0cmFuc2Zvcm09InRyYW5zbGF0ZSg2LjQ1MzY5LC0zLjQ3OTMxKSI+JiN4YTsJCQk8dGl0bGUgaWQ9InRpdGxlMTAxMTE3Ij5TaGVldC40NTk0PC90aXRsZT4mI3hhOwkJCTxwYXRoIGlkPSJwYXRoMTAxMTE5IiBpbmtzY2FwZTpjb25uZWN0b3ItY3VydmF0dXJlPSIwIiBzdHlsZT0iZmlsbDojQzVDNUM1OyIgZD0iTTE3LjE4LDExLjE4Yy0xNi4xNSwwLTE2LjE1LDAtMTYuMTUsMCAgICAgYy0wLjU3LDAtMS4wMywwLjUtMS4wMywxLjA4QzAsMjMuNywwLDIzLjcsMCwyMy43YzAsMC41NywwLjQ2LDEuMDMsMS4wMywxLjAzYzE2LjE1LDAsMTYuMTUsMCwxNi4xNSwwICAgICBjMC41NiwwLDEuMTItMC40NiwxLjEyLTEuMDNjMC0xMS40NCwwLTExLjQ0LDAtMTEuNDRDMTguMywxMS42OCwxNy43NCwxMS4xOCwxNy4xOCwxMS4xOHogTTE2LjksMTIuNjFjMCwxMC43LDAsMTAuNywwLDEwLjcgICAgIGMtMTUuNDksMC0xNS40OSwwLTE1LjQ5LDBjMC0xMC43LDAtMTAuNywwLTEwLjdjMTUuNTMtMC4wMywxNS41My0wLjAzLDE1LjUzLTAuMDNMMTYuOSwxMi42MXoiLz4mI3hhOwkJPC9nPiYjeGE7CQk8ZyBpZD0ic2hhcGU0NTk1LTMwIiB0cmFuc2Zvcm09InRyYW5zbGF0ZSgxMi4zMDg1LC0xMC40Mzc5KSI+JiN4YTsJCQk8dGl0bGUgaWQ9InRpdGxlMTAxMTIyIj5TaGVldC40NTk1PC90aXRsZT4mI3hhOwkJCTxwYXRoIGlkPSJwYXRoMTAxMTI0IiBpbmtzY2FwZTpjb25uZWN0b3ItY3VydmF0dXJlPSIwIiBzdHlsZT0iZmlsbDojRTZGOEZFOyIgZD0iTTMuMjksMjAuODljLTAuMDMsMC0wLjAzLDAtMC4wNywwICAgICBjLTMuMTcsMS44NC0zLjE3LDEuODQtMy4xNywxLjg0QzAsMjIuNzMsMCwyMi43NiwwLDIyLjhjMCwwLjAzLDAsMC4wNywwLjA1LDAuMWMzLjIxLDEuODMsMy4yMSwxLjgzLDMuMjEsMS44M2gwLjAzICAgICBjMC4wNSwwLDAuMDUsMCwwLjA4LDBjMy4xOC0xLjgzLDMuMTgtMS44MywzLjE4LTEuODNjMC4wNCwwLDAuMDQtMC4wMywwLjA0LTAuMDdjMC0wLjAzLDAtMC4wNy0wLjA0LTAuMSAgICAgYy0zLjIxLTEuODQtMy4yMS0xLjg0LTMuMjEtMS44NFMzLjI5LDIwLjg5LDMuMjksMjAuODl6Ii8+JiN4YTsJCTwvZz4mI3hhOwkJPGcgaWQ9InNoYXBlNDU5Ni0zMiIgdHJhbnNmb3JtPSJ0cmFuc2xhdGUoMTEuNzU5NiwtNS44NTk4OCkiPiYjeGE7CQkJPHRpdGxlIGlkPSJ0aXRsZTEwMTEyNyI+U2hlZXQuNDU5NjwvdGl0bGU+JiN4YTsJCQk8cGF0aCBpZD0icGF0aDEwMTEyOSIgaW5rc2NhcGU6Y29ubmVjdG9yLWN1cnZhdHVyZT0iMCIgc3R5bGU9ImZpbGw6I0NDRjFGQzsiIGQ9Ik0wLjExLDE4Ljg3Yy0wLjAzLDAtMC4wMywwLTAuMDYsMCAgICAgQzAsMTguODcsMCwxOC45MiwwLDE4Ljk1YzAsMy43OSwwLDMuNzksMCwzLjc5YzAsMC4wMywwLDAuMDcsMC4wNSwwLjFjMy4yOSwxLjg2LDMuMjksMS44NiwzLjI5LDEuODYgICAgIGMwLDAuMDMsMC4wMywwLjAzLDAuMDMsMC4wM2MwLjA0LDAsMC4wNCwwLDAuMDctMC4wM2MwLDAsMC4wNC0wLjA0LDAuMDQtMC4wN2MwLTMuNzksMC0zLjc5LDAtMy43OWMwLTAuMDQtMC4wNC0wLjA3LTAuMDQtMC4wNyAgICAgYy0zLjI5LTEuOS0zLjI5LTEuOS0zLjI5LTEuOVMwLjExLDE4Ljg3LDAuMTEsMTguODd6Ii8+JiN4YTsJCTwvZz4mI3hhOwkJPGcgaWQ9InNoYXBlNDU5Ny0zNCIgdHJhbnNmb3JtPSJ0cmFuc2xhdGUoMTUuOTY3OCwtNS44NTk4OCkiPiYjeGE7CQkJPHRpdGxlIGlkPSJ0aXRsZTEwMTEzMiI+U2hlZXQuNDU5NzwvdGl0bGU+JiN4YTsJCQk8cGF0aCBpZD0icGF0aDEwMTEzNCIgaW5rc2NhcGU6Y29ubmVjdG9yLWN1cnZhdHVyZT0iMCIgc3R5bGU9ImZpbGw6IzgwRERGODsiIGQ9Ik0zLjIsMTguODdjMCwwLTAuMDMsMC0wLjAzLDAuMDUgICAgIGMtMy4xLDEuODUtMy4xLDEuODUtMy4xLDEuODVDMC4wMywyMC44LDAsMjAuODQsMCwyMC44N2MwLDMuNzYsMCwzLjc2LDAsMy43NmMwLDAuMDMsMC4wMywwLjA3LDAuMDcsMC4wNyAgICAgYzAsMC4wMywwLDAuMDMsMC4wMywwLjAzYzAsMCwwLjA0LDAsMC4wNC0wLjAzYzMuMTItMS44NiwzLjEyLTEuODYsMy4xMi0xLjg2YzAuMDMtMC4wMywwLjAzLTAuMDcsMC4wMy0wLjEgICAgIGMwLTMuNzUsMC0zLjc1LDAtMy43NWMwLTAuMDQsMC0wLjA3LTAuMDMtMC4wN0MzLjI0LDE4Ljg3LDMuMjQsMTguODcsMy4yLDE4Ljg3eiIvPiYjeGE7CQk8L2c+JiN4YTsJPC9nPiYjeGE7PC9nPiYjeGE7PC9zdmc+;rounded=0;html=1;" parent="1" vertex="1">
          <mxGeometry x="250.5" y="181.5" width="48.5" height="48.5" as="geometry" />
        </mxCell>
        <mxCell id="X3BBekmKhfVBw8Z5o2lQ-2" value="Azure Active Directory" style="verticalLabelPosition=bottom;html=1;verticalAlign=top;align=center;strokeColor=none;fillColor=#00BEF2;shape=mxgraph.azure.azure_active_directory;" vertex="1" parent="1">
          <mxGeometry x="895.25" y="480" width="47.5" height="50" as="geometry" />
        </mxCell>
      </root>
    </mxGraphModel>
  </diagram>
  <diagram id="6XivwRZqgCPZD7t4fjC9" name="Page-2">
    <mxGraphModel dx="1662" dy="762" grid="0" gridSize="10" guides="1" tooltips="1" connect="1" arrows="1" fold="1" page="1" pageScale="1" pageWidth="850" pageHeight="1100" math="0" shadow="0">
      <root>
        <mxCell id="K4b8i-s4721dZrcPZKNP-0" />
        <mxCell id="K4b8i-s4721dZrcPZKNP-1" parent="K4b8i-s4721dZrcPZKNP-0" />
        <mxCell id="K4b8i-s4721dZrcPZKNP-2" value="A" style="rounded=0;whiteSpace=wrap;html=1;" vertex="1" parent="K4b8i-s4721dZrcPZKNP-1">
          <mxGeometry x="200" y="120" width="720" height="390" as="geometry" />
        </mxCell>
        <mxCell id="K4b8i-s4721dZrcPZKNP-3" style="edgeStyle=none;rounded=0;orthogonalLoop=1;jettySize=auto;html=1;" edge="1" treatAsSingle="0" parent="K4b8i-s4721dZrcPZKNP-1" source="K4b8i-s4721dZrcPZKNP-5" target="K4b8i-s4721dZrcPZKNP-19">
          <mxGeometry relative="1" as="geometry" />
        </mxCell>
        <mxCell id="K4b8i-s4721dZrcPZKNP-4" value="Load to struct/prep zone" style="edgeLabel;html=1;align=center;verticalAlign=middle;resizable=0;points=[];" vertex="1" connectable="0" parent="K4b8i-s4721dZrcPZKNP-3">
          <mxGeometry x="0.2462" y="1" relative="1" as="geometry">
            <mxPoint y="-1" as="offset" />
          </mxGeometry>
        </mxCell>
        <mxCell id="K4b8i-s4721dZrcPZKNP-5" value="Databricks Spark&lt;br&gt;ADBDE" style="aspect=fixed;html=1;perimeter=none;align=center;shadow=0;dashed=0;image;fontSize=12;image=img/lib/mscae/Databricks.svg;" vertex="1" parent="K4b8i-s4721dZrcPZKNP-1">
          <mxGeometry x="527.75" y="171.5" width="47.5" height="50" as="geometry" />
        </mxCell>
        <mxCell id="K4b8i-s4721dZrcPZKNP-6" value="Power BI&lt;br&gt;Dashboard" style="shadow=0;dashed=0;html=1;strokeColor=none;labelPosition=center;verticalLabelPosition=bottom;verticalAlign=top;align=center;shape=mxgraph.mscae.cloud.power_bi_embedded;fillColor=#000000;pointerEvents=1;" vertex="1" parent="K4b8i-s4721dZrcPZKNP-1">
          <mxGeometry x="843" y="350" width="44.5" height="50" as="geometry" />
        </mxCell>
        <mxCell id="K4b8i-s4721dZrcPZKNP-7" value="Extract Daily" style="edgeStyle=none;rounded=0;orthogonalLoop=1;jettySize=auto;html=1;entryX=0;entryY=0.5;entryDx=0;entryDy=0;exitX=0;exitY=0.5;exitDx=0;exitDy=0;" edge="1" parent="K4b8i-s4721dZrcPZKNP-1" source="K4b8i-s4721dZrcPZKNP-24">
          <mxGeometry relative="1" as="geometry">
            <mxPoint x="81" y="206.4155759162304" as="targetPoint" />
          </mxGeometry>
        </mxCell>
        <mxCell id="K4b8i-s4721dZrcPZKNP-9" style="edgeStyle=none;rounded=0;orthogonalLoop=1;jettySize=auto;html=1;entryX=-0.109;entryY=0.633;entryDx=0;entryDy=0;entryPerimeter=0;" edge="1" treatAsSingle="0" parent="K4b8i-s4721dZrcPZKNP-1" source="K4b8i-s4721dZrcPZKNP-11" target="K4b8i-s4721dZrcPZKNP-19">
          <mxGeometry relative="1" as="geometry">
            <mxPoint x="538" y="400" as="targetPoint" />
            <Array as="points">
              <mxPoint x="398" y="400" />
            </Array>
          </mxGeometry>
        </mxCell>
        <mxCell id="K4b8i-s4721dZrcPZKNP-10" value="Load to Raw zone" style="edgeLabel;html=1;align=center;verticalAlign=middle;resizable=0;points=[];" vertex="1" connectable="0" parent="K4b8i-s4721dZrcPZKNP-9">
          <mxGeometry x="-0.2648" relative="1" as="geometry">
            <mxPoint as="offset" />
          </mxGeometry>
        </mxCell>
        <mxCell id="K4b8i-s4721dZrcPZKNP-11" value="Azure Data Factory&#xa;" style="shape=image;verticalLabelPosition=bottom;labelBackgroundColor=#ffffff;verticalAlign=top;aspect=fixed;imageAspect=0;image=data:image/svg+xml,PHN2ZyB4bWxuczpkYz0iaHR0cDovL3B1cmwub3JnL2RjL2VsZW1lbnRzLzEuMS8iIHhtbG5zOmNjPSJodHRwOi8vY3JlYXRpdmVjb21tb25zLm9yZy9ucyMiIHhtbG5zOnJkZj0iaHR0cDovL3d3dy53My5vcmcvMTk5OS8wMi8yMi1yZGYtc3ludGF4LW5zIyIgeG1sbnM6c3ZnPSJodHRwOi8vd3d3LnczLm9yZy8yMDAwL3N2ZyIgeG1sbnM9Imh0dHA6Ly93d3cudzMub3JnLzIwMDAvc3ZnIiB4bWxuczpzb2RpcG9kaT0iaHR0cDovL3NvZGlwb2RpLnNvdXJjZWZvcmdlLm5ldC9EVEQvc29kaXBvZGktMC5kdGQiIHhtbG5zOmlua3NjYXBlPSJodHRwOi8vd3d3Lmlua3NjYXBlLm9yZy9uYW1lc3BhY2VzL2lua3NjYXBlIiB2ZXJzaW9uPSIxLjEiIGlkPSJzdmc1Njg2MSIgaW5rc2NhcGU6dmVyc2lvbj0iMC45Mi4zICgyNDA1NTQ2LCAyMDE4LTAzLTExKSIgc29kaXBvZGk6ZG9jbmFtZT0iYXp1cmVfZGF0YV9mYWN0b3J5LnN2ZyIgeD0iMHB4IiB5PSIwcHgiIHZpZXdCb3g9IjAgMCAxMDAuMSA5OS45IiB4bWw6c3BhY2U9InByZXNlcnZlIiB3aWR0aD0iMTAwLjEiIGhlaWdodD0iOTkuOTAwMDAyIj48bWV0YWRhdGEgaWQ9Im1ldGFkYXRhNjgyMyI+PHJkZjpSREY+PGNjOldvcmsgcmRmOmFib3V0PSIiPjxkYzpmb3JtYXQ+aW1hZ2Uvc3ZnK3htbDwvZGM6Zm9ybWF0PjxkYzp0eXBlIHJkZjpyZXNvdXJjZT0iaHR0cDovL3B1cmwub3JnL2RjL2RjbWl0eXBlL1N0aWxsSW1hZ2UiLz48ZGM6dGl0bGUvPjwvY2M6V29yaz48L3JkZjpSREY+PC9tZXRhZGF0YT48ZGVmcyBpZD0iZGVmczY4MjEiLz4mI3hhOzxmaWx0ZXIgaWQ9ImZpbHRlcl8yIj4mI3hhOwk8ZmVHYXVzc2lhbkJsdXIgaWQ9ImZlR2F1c3NpYW5CbHVyNTY4MTAiIHN0ZERldmlhdGlvbj0iMiIvPiYjeGE7PC9maWx0ZXI+JiN4YTs8c29kaXBvZGk6bmFtZWR2aWV3IGJvcmRlcmNvbG9yPSIjNjY2NjY2IiBib3JkZXJvcGFjaXR5PSIxIiBmaXQtbWFyZ2luLWJvdHRvbT0iMCIgZml0LW1hcmdpbi1sZWZ0PSIwIiBmaXQtbWFyZ2luLXJpZ2h0PSIwIiBmaXQtbWFyZ2luLXRvcD0iMCIgZ3JpZHRvbGVyYW5jZT0iMTAiIGd1aWRldG9sZXJhbmNlPSIxMCIgaWQ9Im5hbWVkdmlldzU2ODYzIiBpbmtzY2FwZTpjdXJyZW50LWxheWVyPSJzdmc1Njg2MSIgaW5rc2NhcGU6Y3g9Ii0yMi41MTIwNzIiIGlua3NjYXBlOmN5PSI1Ni44MTcyNzkiIGlua3NjYXBlOnBhZ2VvcGFjaXR5PSIwIiBpbmtzY2FwZTpwYWdlc2hhZG93PSIyIiBpbmtzY2FwZTp3aW5kb3ctaGVpZ2h0PSIxMDE3IiBpbmtzY2FwZTp3aW5kb3ctbWF4aW1pemVkPSIxIiBpbmtzY2FwZTp3aW5kb3ctd2lkdGg9IjE5MjAiIGlua3NjYXBlOndpbmRvdy14PSItOCIgaW5rc2NhcGU6d2luZG93LXk9Ii04IiBpbmtzY2FwZTp6b29tPSIzLjY5Njc5MDciIG9iamVjdHRvbGVyYW5jZT0iMTAiIHBhZ2Vjb2xvcj0iI2ZmZmZmZiIgc2hvd2dyaWQ9ImZhbHNlIj4mI3hhOwk8L3NvZGlwb2RpOm5hbWVkdmlldz4mI3hhOyYjeGE7PHBhdGggaWQ9InBhdGg1NjgyMyIgaW5rc2NhcGU6Y29ubmVjdG9yLWN1cnZhdHVyZT0iMCIgc3R5bGU9ImZpbGw6IzU5YjRkOSIgZD0iTSA5OS45LDU4Ljg2IFYgMzQuNjMgTCA3Mi40Nyw1OC40NiBoIC0wLjYgViAzNC42MyBMIDQ0LjQ0LDU4LjQ2IFYgOC42MSBDIDQ0LjQ0LDQuNCAzNS4wMywwLjIgMjIuNjIsMC4yIDEwLjIxLDAuMiAwLDQuMiAwLDguNjEgViA5OS45IEggMTAwLjEgWiBNIDIyLjYyLDEyLjYxIGMgLTkuMDEsMCAtMTYuMjEsLTIuMiAtMTYuMjEsLTQuNiAwLC0yLjQgNy4yLC00LjYxIDE2LjIxLC00LjYxIDkuMDEsMCAxNi4yMiwyLjAxIDE2LjIyLDQuNjEgLTAuMiwyLjQgLTcuNDEsNC42IC0xNi4yMiw0LjYgeiBNIDY5Ljg3LDgzLjY4IEggNTguODYgViA3Mi42NyBoIDExLjAxIHogbSAtMTkuNDIsMCBIIDM5LjQ0IFYgNzIuNjcgaCAxMS4wMSB6IG0gMjguMDMsMCBWIDcyLjY3IGggMTEuMDEgdiAxMS4wMSB6Ii8+JiN4YTsmI3hhOzxyZWN0IGlkPSJyZWN0NTY4MzEiIHg9IjAiIHk9IjguMDEwMDAwMiIgc3R5bGU9ImZpbGw6IzM5OTljNiIgd2lkdGg9IjIyLjIxOTk5OSIgaGVpZ2h0PSI5MS44ODk5OTkiLz4mI3hhOyYjeGE7PHBhdGggaWQ9InBhdGg1NjgzOSIgaW5rc2NhcGU6Y29ubmVjdG9yLWN1cnZhdHVyZT0iMCIgc3R5bGU9ImZpbGw6I2ZmZmZmZiIgZD0ibSA0NC4yNCw4LjAxIGMgMCw0LjQgLTEwLjAxLDguMDEgLTIyLjIyLDguMDEgQyA5LjgxLDE2LjAyIDAsMTIuNDEgMCw4LjAxIDAsMy42IDEwLjAxLDAgMjIuMjIsMCAzNC40MywwIDQ0LjI0LDMuNCA0NC4yNCw4LjAxIFoiLz4mI3hhOyYjeGE7PHBhdGggaWQ9InBhdGg1Njg0NyIgaW5rc2NhcGU6Y29ubmVjdG9yLWN1cnZhdHVyZT0iMCIgc3R5bGU9ImZpbGw6IzdmYmEwMCIgZD0ibSAzOS44Myw3LjQxIGMgMCwzIC03LjgsNS4yMSAtMTcuNjEsNS4yMSAtOS44MSwwIC0xNy42MiwtMi4yMSAtMTcuNjIsLTUuMjEgMCwtMyA3LjgxLC01LjIgMTcuNjIsLTUuMiA5LjgxLDAgMTcuNjEsMi40IDE3LjYxLDUuMiB6Ii8+JiN4YTsmI3hhOzxwYXRoIGlkPSJwYXRoNTY4NTUiIGlua3NjYXBlOmNvbm5lY3Rvci1jdXJ2YXR1cmU9IjAiIHN0eWxlPSJmaWxsOiNiOGQ0MzIiIGQ9Im0gMzYuMDMsMTAuNjEgYyAyLjQsLTAuOCAzLjYsLTIgMy42LC0zLjIxIDAsLTMgLTcuOCwtNS4yIC0xNy42MSwtNS4yIEMgMTIuMjEsMi4yIDQuNCw0LjYgNC40LDcuNCA0LjYsOC42MSA2LDkuODEgOC4yLDEwLjYxIGMgMy4yMSwtMS4yIDguMjEsLTIgMTQuMDIsLTIgNS42LDAgMTAuNjEsMC44IDEzLjgxLDIgeiIvPiYjeGE7PC9zdmc+;" vertex="1" parent="K4b8i-s4721dZrcPZKNP-1">
          <mxGeometry x="378" y="174.5" width="39" height="39" as="geometry" />
        </mxCell>
        <mxCell id="K4b8i-s4721dZrcPZKNP-12" style="edgeStyle=none;rounded=0;orthogonalLoop=1;jettySize=auto;html=1;entryX=0.174;entryY=0.39;entryDx=0;entryDy=0;entryPerimeter=0;" edge="1" treatAsSingle="0" parent="K4b8i-s4721dZrcPZKNP-1" source="K4b8i-s4721dZrcPZKNP-14" target="K4b8i-s4721dZrcPZKNP-20">
          <mxGeometry relative="1" as="geometry" />
        </mxCell>
        <mxCell id="K4b8i-s4721dZrcPZKNP-13" value="query" style="edgeLabel;html=1;align=center;verticalAlign=middle;resizable=0;points=[];" vertex="1" connectable="0" parent="K4b8i-s4721dZrcPZKNP-12">
          <mxGeometry x="0.1806" relative="1" as="geometry">
            <mxPoint as="offset" />
          </mxGeometry>
        </mxCell>
        <mxCell id="K4b8i-s4721dZrcPZKNP-14" value="Databricks Spark&lt;br&gt;ADBAH" style="aspect=fixed;html=1;perimeter=none;align=center;shadow=0;dashed=0;image;fontSize=12;image=img/lib/mscae/Databricks.svg;" vertex="1" parent="K4b8i-s4721dZrcPZKNP-1">
          <mxGeometry x="702" y="169" width="47.5" height="50" as="geometry" />
        </mxCell>
        <mxCell id="K4b8i-s4721dZrcPZKNP-15" style="edgeStyle=none;rounded=0;orthogonalLoop=1;jettySize=auto;html=1;entryX=0;entryY=0.76;entryDx=0;entryDy=0;entryPerimeter=0;" edge="1" treatAsSingle="0" parent="K4b8i-s4721dZrcPZKNP-1" source="K4b8i-s4721dZrcPZKNP-19" target="K4b8i-s4721dZrcPZKNP-6">
          <mxGeometry relative="1" as="geometry" />
        </mxCell>
        <object label="Query" id="K4b8i-s4721dZrcPZKNP-16">
          <mxCell style="edgeLabel;html=1;align=center;verticalAlign=middle;resizable=0;points=[];" vertex="1" connectable="0" parent="K4b8i-s4721dZrcPZKNP-15">
            <mxGeometry x="-0.1305" y="-1" relative="1" as="geometry">
              <mxPoint as="offset" />
            </mxGeometry>
          </mxCell>
        </object>
        <mxCell id="K4b8i-s4721dZrcPZKNP-17" value="Query" style="edgeStyle=none;rounded=0;orthogonalLoop=1;jettySize=auto;html=1;exitX=1;exitY=0;exitDx=0;exitDy=0;" edge="1" parent="K4b8i-s4721dZrcPZKNP-1" source="K4b8i-s4721dZrcPZKNP-19">
          <mxGeometry relative="1" as="geometry">
            <mxPoint x="728" y="221" as="targetPoint" />
          </mxGeometry>
        </mxCell>
        <mxCell id="K4b8i-s4721dZrcPZKNP-19" value="Azure Data Lake/Delta&#xa;" style="shape=image;verticalLabelPosition=bottom;labelBackgroundColor=#ffffff;verticalAlign=top;aspect=fixed;imageAspect=0;image=data:image/svg+xml,PHN2ZyB4bWxuczpkYz0iaHR0cDovL3B1cmwub3JnL2RjL2VsZW1lbnRzLzEuMS8iIHhtbG5zOmNjPSJodHRwOi8vY3JlYXRpdmVjb21tb25zLm9yZy9ucyMiIHhtbG5zOnJkZj0iaHR0cDovL3d3dy53My5vcmcvMTk5OS8wMi8yMi1yZGYtc3ludGF4LW5zIyIgeG1sbnM6c3ZnPSJodHRwOi8vd3d3LnczLm9yZy8yMDAwL3N2ZyIgeG1sbnM9Imh0dHA6Ly93d3cudzMub3JnLzIwMDAvc3ZnIiB4bWxuczpzb2RpcG9kaT0iaHR0cDovL3NvZGlwb2RpLnNvdXJjZWZvcmdlLm5ldC9EVEQvc29kaXBvZGktMC5kdGQiIHhtbG5zOmlua3NjYXBlPSJodHRwOi8vd3d3Lmlua3NjYXBlLm9yZy9uYW1lc3BhY2VzL2lua3NjYXBlIiB2ZXJzaW9uPSIxLjEiIGlkPSJzdmc3NjkyMyIgaW5rc2NhcGU6dmVyc2lvbj0iMC45Mi4zICgyNDA1NTQ2LCAyMDE4LTAzLTExKSIgc29kaXBvZGk6ZG9jbmFtZT0iZGF0YV9sYWtlLnN2ZyIgeD0iMHB4IiB5PSIwcHgiIHZpZXdCb3g9IjAgMCA1My43OCA3MS4xMyIgeG1sOnNwYWNlPSJwcmVzZXJ2ZSIgd2lkdGg9IjUzLjc3OTk5OSIgaGVpZ2h0PSI3MS4xMjk5OTciPjxtZXRhZGF0YSBpZD0ibWV0YWRhdGEyMjgyMyI+PHJkZjpSREY+PGNjOldvcmsgcmRmOmFib3V0PSIiPjxkYzpmb3JtYXQ+aW1hZ2Uvc3ZnK3htbDwvZGM6Zm9ybWF0PjxkYzp0eXBlIHJkZjpyZXNvdXJjZT0iaHR0cDovL3B1cmwub3JnL2RjL2RjbWl0eXBlL1N0aWxsSW1hZ2UiLz48ZGM6dGl0bGUvPjwvY2M6V29yaz48L3JkZjpSREY+PC9tZXRhZGF0YT48ZGVmcyBpZD0iZGVmczIyODIxIi8+JiN4YTs8ZmlsdGVyIGlkPSJmaWx0ZXJfMiI+JiN4YTsJPGZlR2F1c3NpYW5CbHVyIGlkPSJmZUdhdXNzaWFuQmx1cjc2ODMwIiBzdGREZXZpYXRpb249IjIiLz4mI3hhOzwvZmlsdGVyPiYjeGE7PHNvZGlwb2RpOm5hbWVkdmlldyBib3JkZXJjb2xvcj0iIzY2NjY2NiIgYm9yZGVyb3BhY2l0eT0iMSIgZml0LW1hcmdpbi1ib3R0b209IjAiIGZpdC1tYXJnaW4tbGVmdD0iMCIgZml0LW1hcmdpbi1yaWdodD0iMCIgZml0LW1hcmdpbi10b3A9IjAiIGdyaWR0b2xlcmFuY2U9IjEwIiBndWlkZXRvbGVyYW5jZT0iMTAiIGlkPSJuYW1lZHZpZXc3NjkyNSIgaW5rc2NhcGU6Y3VycmVudC1sYXllcj0ic3ZnNzY5MjMiIGlua3NjYXBlOmN4PSItNTUuMzI3MzQ3IiBpbmtzY2FwZTpjeT0iNDcuNzkxMTMzIiBpbmtzY2FwZTpwYWdlb3BhY2l0eT0iMCIgaW5rc2NhcGU6cGFnZXNoYWRvdz0iMiIgaW5rc2NhcGU6d2luZG93LWhlaWdodD0iMTAxNyIgaW5rc2NhcGU6d2luZG93LW1heGltaXplZD0iMSIgaW5rc2NhcGU6d2luZG93LXdpZHRoPSIxOTIwIiBpbmtzY2FwZTp3aW5kb3cteD0iLTgiIGlua3NjYXBlOndpbmRvdy15PSItOCIgaW5rc2NhcGU6em9vbT0iNC44MDg5OTYiIG9iamVjdHRvbGVyYW5jZT0iMTAiIHBhZ2Vjb2xvcj0iI2ZmZmZmZiIgc2hvd2dyaWQ9ImZhbHNlIj4mI3hhOwk8L3NvZGlwb2RpOm5hbWVkdmlldz4mI3hhOyYjeGE7PHBhdGggaWQ9InBhdGg3Njg0NSIgaW5rc2NhcGU6Y29ubmVjdG9yLWN1cnZhdHVyZT0iMCIgc3R5bGU9ImZpbGw6IzNlM2UzZSIgZD0ibSAwLDkuNjggdiA1MS42NCBjIDAsNS40IDExLjk1LDkuNjcgMjYuODksOS42NyBWIDkuNjggWiIvPiYjeGE7JiN4YTs8cGF0aCBpZD0icGF0aDc2ODUzIiBpbmtzY2FwZTpjb25uZWN0b3ItY3VydmF0dXJlPSIwIiBzdHlsZT0iZmlsbDojYTBhMWEyIiBkPSJtIDI2LjQ2LDcxLjEzIGggMC40MyBjIDE0Ljc5LDAgMjYuODgsLTQuNDEgMjYuODgsLTkuNjcgViA5LjY3IEggMjYuNDYgWiIvPiYjeGE7JiN4YTs8cGF0aCBpZD0icGF0aDc2ODYxIiBpbmtzY2FwZTpjb25uZWN0b3ItY3VydmF0dXJlPSIwIiBzdHlsZT0iZmlsbDojZmZmZmZmIiBkPSJtIDUzLjc4LDkuNjggYyAwLDUuNCAtMTEuOTUsOS42NyAtMjYuODksOS42NyBDIDExLjk1LDE5LjM1IDAsMTUuMDggMCw5LjY4IDAsNC40MSAxMi4wOSwwIDI2Ljg5LDAgNDEuNjgsMCA1My43OCw0LjQxIDUzLjc4LDkuNjggWiIvPiYjeGE7JiN4YTs8cGF0aCBpZD0icGF0aDc2ODY5IiBpbmtzY2FwZTpjb25uZWN0b3ItY3VydmF0dXJlPSIwIiBzdHlsZT0iZmlsbDojN2ZiYTAwIiBkPSJtIDQ4LjIzLDkuMTEgYyAwLDMuNTYgLTkuNTMsNi40IC0yMS4zNCw2LjQgLTExLjgxLDAgLTIxLjM0LC0yLjg0IC0yMS4zNCwtNi40IDAsLTMuNTYgOS41MywtNi40IDIxLjM0LC02LjQgMTEuODEsMCAyMS4zNCwyLjg0IDIxLjM0LDYuNCB6Ii8+JiN4YTsmI3hhOzxwYXRoIGlkPSJwYXRoNzY4NzciIGlua3NjYXBlOmNvbm5lY3Rvci1jdXJ2YXR1cmU9IjAiIHN0eWxlPSJmaWxsOiNiOGQ0MzIiIGQ9Im0gNDMuODIsMTMuMDkgYyAyLjg0LC0xLjE0IDQuNDEsLTIuNDIgNC40MSwtMy45OCAwLC0zLjU2IC05LjUzLC02LjQgLTIxLjM0LC02LjQgLTExLjgxLDAgLTIxLjM0LDIuODQgLTIxLjM0LDYuNCAwLDEuNDIgMS43MSwyLjg0IDQuNDEsMy45OCAzLjg0LC0xLjU2IDkuOTYsLTIuNTYgMTYuOTMsLTIuNTYgNi44MywwIDEyLjk1LDEgMTYuOTMsMi41NiB6Ii8+JiN4YTsmI3hhOzxwYXRoIGlkPSJwYXRoNzY4ODgiIGlua3NjYXBlOmNvbm5lY3Rvci1jdXJ2YXR1cmU9IjAiIHN0eWxlPSJmaWxsOiMzOTk5YzYiIGQ9Ik0gMjYuNDYsNzEuMTMgViA0NS41MiBjIC0zLjk4LDAgLTcuNCwtMi4xMyAtOS4zOSwtNS4yNiAtMS45OSwzLjEzIC01LjI2LDUuMjYgLTkuMjUsNS4yNiAtMy4xMywwIC01LjgzLC0xLjI4IC03LjgyLC0zLjQxIHYgMTkuMzUgYyAwLDUuMjYgMTEuODEsOS41MyAyNi40Niw5LjY3IHoiLz4mI3hhOzxnIGlkPSJzaGFkb3c1MTA2LTM1IiB0cmFuc2Zvcm09InRyYW5zbGF0ZSgtNTIuNzY2OCwtMjIuNTAzNzU0KSI+JiN4YTs8L2c+JiN4YTsmI3hhOyYjeGE7JiN4YTs8cGF0aCBpZD0icGF0aDc2OTA4IiBpbmtzY2FwZTpjb25uZWN0b3ItY3VydmF0dXJlPSIwIiBzdHlsZT0iZmlsbDojNTliNGQ5IiBkPSJtIDQ1LjUzLDQ1LjUyIGMgLTMuOTgsMCAtNy41NCwtMi4xMyAtOS41MywtNS4yNiAtMS44NSwzLjEzIC01LjI3LDUuMTIgLTkuMjUsNS4yNiB2IDI1LjYxIGMgMTQuOCwwIDI2Ljg5LC00LjQxIDI2Ljg5LC05LjY3IFYgNDEuOTcgYyAtMS45OSwyLjEzIC00Ljg0LDMuNTUgLTguMTEsMy41NSB6Ii8+JiN4YTsmI3hhOyYjeGE7PC9zdmc+;" vertex="1" parent="K4b8i-s4721dZrcPZKNP-1">
          <mxGeometry x="528" y="361" width="46.07" height="60" as="geometry" />
        </mxCell>
        <mxCell id="K4b8i-s4721dZrcPZKNP-20" value="SQL/ Python/ &lt;br&gt;R /Scala" style="pointerEvents=1;shadow=0;dashed=0;html=1;strokeColor=none;labelPosition=center;verticalLabelPosition=bottom;verticalAlign=top;outlineConnect=0;align=center;shape=mxgraph.office.users.users;fillColor=#2072B8;" vertex="1" parent="K4b8i-s4721dZrcPZKNP-1">
          <mxGeometry x="850" y="179" width="46" height="40" as="geometry" />
        </mxCell>
        <mxCell id="K4b8i-s4721dZrcPZKNP-21" value="Azure Cloud" style="verticalLabelPosition=bottom;html=1;verticalAlign=top;align=center;strokeColor=none;fillColor=#00BEF2;shape=mxgraph.azure.azure_subscription;rounded=0;" vertex="1" parent="K4b8i-s4721dZrcPZKNP-1">
          <mxGeometry x="894" y="106" width="50" height="35" as="geometry" />
        </mxCell>
        <mxCell id="K4b8i-s4721dZrcPZKNP-22" value="Azure Key-Vault" style="shape=image;verticalLabelPosition=bottom;labelBackgroundColor=#ffffff;verticalAlign=top;aspect=fixed;imageAspect=0;image=data:image/svg+xml,PHN2ZyB4bWxuczpkYz0iaHR0cDovL3B1cmwub3JnL2RjL2VsZW1lbnRzLzEuMS8iIHhtbG5zOmNjPSJodHRwOi8vY3JlYXRpdmVjb21tb25zLm9yZy9ucyMiIHhtbG5zOnJkZj0iaHR0cDovL3d3dy53My5vcmcvMTk5OS8wMi8yMi1yZGYtc3ludGF4LW5zIyIgeG1sbnM6c3ZnPSJodHRwOi8vd3d3LnczLm9yZy8yMDAwL3N2ZyIgeG1sbnM9Imh0dHA6Ly93d3cudzMub3JnLzIwMDAvc3ZnIiB4bWxuczpzb2RpcG9kaT0iaHR0cDovL3NvZGlwb2RpLnNvdXJjZWZvcmdlLm5ldC9EVEQvc29kaXBvZGktMC5kdGQiIHhtbG5zOmlua3NjYXBlPSJodHRwOi8vd3d3Lmlua3NjYXBlLm9yZy9uYW1lc3BhY2VzL2lua3NjYXBlIiB2ZXJzaW9uPSIxLjEiIGlkPSJzdmc4MjQ1OSIgaW5rc2NhcGU6dmVyc2lvbj0iMC45Mi4zICgyNDA1NTQ2LCAyMDE4LTAzLTExKSIgc29kaXBvZGk6ZG9jbmFtZT0ia2V5X3ZhdWx0LnN2ZyIgeD0iMHB4IiB5PSIwcHgiIHZpZXdCb3g9IjAgMCA4OS42OSAxMDAuMTEiIHN0eWxlPSJlbmFibGUtYmFja2dyb3VuZDpuZXcgMCAwIDg5LjY5IDEwMC4xMTsiIHhtbDpzcGFjZT0icHJlc2VydmUiPjxtZXRhZGF0YSBpZD0ibWV0YWRhdGEyMzQ4Ij48cmRmOlJERj48Y2M6V29yayByZGY6YWJvdXQ9IiI+PGRjOmZvcm1hdD5pbWFnZS9zdmcreG1sPC9kYzpmb3JtYXQ+PGRjOnR5cGUgcmRmOnJlc291cmNlPSJodHRwOi8vcHVybC5vcmcvZGMvZGNtaXR5cGUvU3RpbGxJbWFnZSIvPjxkYzp0aXRsZS8+PC9jYzpXb3JrPjwvcmRmOlJERj48L21ldGFkYXRhPjxkZWZzIGlkPSJkZWZzMjM0NiIvPiYjeGE7PGZpbHRlciBpZD0iZmlsdGVyXzIiPiYjeGE7CTxmZUdhdXNzaWFuQmx1ciBpZD0iZmVHYXVzc2lhbkJsdXI4MjQzMiIgc3RkRGV2aWF0aW9uPSIyIi8+JiN4YTs8L2ZpbHRlcj4mI3hhOzxzb2RpcG9kaTpuYW1lZHZpZXcgYm9yZGVyY29sb3I9IiM2NjY2NjYiIGJvcmRlcm9wYWNpdHk9IjEiIGZpdC1tYXJnaW4tYm90dG9tPSIwIiBmaXQtbWFyZ2luLWxlZnQ9IjAiIGZpdC1tYXJnaW4tcmlnaHQ9IjAiIGZpdC1tYXJnaW4tdG9wPSIwIiBncmlkdG9sZXJhbmNlPSIxMCIgZ3VpZGV0b2xlcmFuY2U9IjEwIiBpZD0ibmFtZWR2aWV3ODI0NjEiIGlua3NjYXBlOmN1cnJlbnQtbGF5ZXI9InN2ZzgyNDU5IiBpbmtzY2FwZTpjeD0iNzMuODY0NzI3IiBpbmtzY2FwZTpjeT0iNTIuMzM5MjAxIiBpbmtzY2FwZTpwYWdlb3BhY2l0eT0iMCIgaW5rc2NhcGU6cGFnZXNoYWRvdz0iMiIgaW5rc2NhcGU6d2luZG93LWhlaWdodD0iMTAxNyIgaW5rc2NhcGU6d2luZG93LW1heGltaXplZD0iMSIgaW5rc2NhcGU6d2luZG93LXdpZHRoPSIxOTIwIiBpbmtzY2FwZTp3aW5kb3cteD0iLTgiIGlua3NjYXBlOndpbmRvdy15PSItOCIgaW5rc2NhcGU6em9vbT0iMy42OTA2MTY0IiBvYmplY3R0b2xlcmFuY2U9IjEwIiBwYWdlY29sb3I9IiNmZmZmZmYiIHNob3dncmlkPSJmYWxzZSI+JiN4YTsJPC9zb2RpcG9kaTpuYW1lZHZpZXc+JiN4YTsmI3hhOzxwYXRoIGlkPSJwYXRoODI0NDUiIGlua3NjYXBlOmNvbm5lY3Rvci1jdXJ2YXR1cmU9IjAiIHN0eWxlPSJmaWxsOiM3RkJBMDA7IiBkPSJNODkuNjksNTUuMjZjMC0xNC42Mi03LTI3LjQzLTE3LjYxLTM1LjY0ICBjMCwwLjQsMCwxLDAsMS40YzAsNC40MS0xLjIxLDguNjEtMy4wMSwxMi4yMWM1LjIxLDUuODEsOC40MSwxMy40Miw4LjQxLDIxLjgzYzAsMTguMDItMTQuNjEsMzIuNjMtMzIuNjMsMzIuNjMgIFMxMi4yMSw3My4wOCwxMi4yMSw1NS4wNmMwLTkuMDEsMy42MS0xNy4wMiw5LjQxLTIzLjAzYy0xLjYtMy40LTIuNi03LjItMi42LTExLjIxYzAtMC44LDAtMS44LDAuMi0yLjZDNy42MSwyNi4yMywwLDM5Ljg0LDAsNTUuMDYgIGMwLDI1LjAyLDIwLjAyLDQ1LjA1LDQ0Ljg1LDQ1LjA1QzY5LjY3LDEwMC4xMSw4OS42OSw4MC4wOCw4OS42OSw1NS4yNnoiLz4mI3hhOyYjeGE7PHBhdGggaWQ9InBhdGg4MjQ1MyIgaW5rc2NhcGU6Y29ubmVjdG9yLWN1cnZhdHVyZT0iMCIgc3R5bGU9ImZpbGw6I0ZDRDExNjsiIGQ9Ik00NS40NSwwQzM0LjA0LDAsMjQuODMsOS4yMSwyNC44MywyMC42MiAgYzAsOS40MSw2LjIxLDE3LjIyLDE0LjgyLDE5LjgydjIwLjQzaC05LjYxdjEwLjQxaDkuNjF2Ny42MWgxMS40MVY0MC4yNGM4LjYxLTIuNCwxNC44MS0xMC40MSwxNC44MS0xOS44MiAgQzY2LjA3LDkuMjEsNTYuODYsMCw0NS40NSwweiBNNDUuNDUsMTAuODFjNS40MSwwLDkuODEsNC40MSw5LjgxLDkuODFjMCw1LjQxLTQuNCw5LjgxLTkuODEsOS44MWMtNS40LDAtOS44MS00LjQtOS44MS05LjgxICBDMzUuNjQsMTUuMjIsNDAuMDUsMTAuODEsNDUuNDUsMTAuODF6Ii8+JiN4YTs8L3N2Zz4=;rounded=0;html=1;" vertex="1" parent="K4b8i-s4721dZrcPZKNP-1">
          <mxGeometry x="178" y="430" width="45" height="50" as="geometry" />
        </mxCell>
        <mxCell id="K4b8i-s4721dZrcPZKNP-23" style="edgeStyle=none;rounded=0;orthogonalLoop=1;jettySize=auto;html=1;entryX=0;entryY=0.75;entryDx=0;entryDy=0;" edge="1" parent="K4b8i-s4721dZrcPZKNP-1" source="K4b8i-s4721dZrcPZKNP-24" target="K4b8i-s4721dZrcPZKNP-11">
          <mxGeometry relative="1" as="geometry" />
        </mxCell>
        <mxCell id="K4b8i-s4721dZrcPZKNP-24" value="Self Hosted Run time VM&amp;nbsp;" style="shape=image;verticalLabelPosition=bottom;labelBackgroundColor=#ffffff;verticalAlign=top;aspect=fixed;imageAspect=0;image=data:image/svg+xml,PHN2ZyB4bWxuczpjYz0iaHR0cDovL2NyZWF0aXZlY29tbW9ucy5vcmcvbnMjIiB4bWxuczpkYz0iaHR0cDovL3B1cmwub3JnL2RjL2VsZW1lbnRzLzEuMS8iIHhtbG5zOmlua3NjYXBlPSJodHRwOi8vd3d3Lmlua3NjYXBlLm9yZy9uYW1lc3BhY2VzL2lua3NjYXBlIiB4bWxuczpyZGY9Imh0dHA6Ly93d3cudzMub3JnLzE5OTkvMDIvMjItcmRmLXN5bnRheC1ucyMiIHhtbG5zOnNvZGlwb2RpPSJodHRwOi8vc29kaXBvZGkuc291cmNlZm9yZ2UubmV0L0RURC9zb2RpcG9kaS0wLmR0ZCIgeG1sbnM6c3ZnPSJodHRwOi8vd3d3LnczLm9yZy8yMDAwL3N2ZyIgeG1sbnM9Imh0dHA6Ly93d3cudzMub3JnLzIwMDAvc3ZnIiB4bWxuczp4bGluaz0iaHR0cDovL3d3dy53My5vcmcvMTk5OS94bGluayIgdmVyc2lvbj0iMS4xIiBpZD0ic3ZnMTAxMTQwIiBpbmtzY2FwZTp2ZXJzaW9uPSIwLjkyLjMgKDI0MDU1NDYsIDIwMTgtMDMtMTEpIiBzb2RpcG9kaTpkb2NuYW1lPSJ2aXJ0dWFsX21hY2hpbmVfc2NhbGVfc2V0c192bV9pbWFnZXMuc3ZnIiB4PSIwcHgiIHk9IjBweCIgdmlld0JveD0iMCAwIDI0Ljc1IDI0LjczIiBzdHlsZT0iZW5hYmxlLWJhY2tncm91bmQ6bmV3IDAgMCAyNC43NSAyNC43MzsiIHhtbDpzcGFjZT0icHJlc2VydmUiPiYjeGE7PHNvZGlwb2RpOm5hbWVkdmlldyBib3JkZXJjb2xvcj0iIzY2NjY2NiIgYm9yZGVyb3BhY2l0eT0iMSIgZml0LW1hcmdpbi1ib3R0b209IjAiIGZpdC1tYXJnaW4tbGVmdD0iMCIgZml0LW1hcmdpbi1yaWdodD0iMCIgZml0LW1hcmdpbi10b3A9IjAiIGdyaWR0b2xlcmFuY2U9IjEwIiBndWlkZXRvbGVyYW5jZT0iMTAiIGlkPSJuYW1lZHZpZXcxMDExNDIiIGlua3NjYXBlOmN1cnJlbnQtbGF5ZXI9InN2ZzEwMTE0MCIgaW5rc2NhcGU6Y3g9IjE5LjExNjkiIGlua3NjYXBlOmN5PSI4Ljc3NTgxOCIgaW5rc2NhcGU6cGFnZW9wYWNpdHk9IjAiIGlua3NjYXBlOnBhZ2VzaGFkb3c9IjIiIGlua3NjYXBlOndpbmRvdy1oZWlnaHQ9IjEwMTciIGlua3NjYXBlOndpbmRvdy1tYXhpbWl6ZWQ9IjEiIGlua3NjYXBlOndpbmRvdy13aWR0aD0iMTkyMCIgaW5rc2NhcGU6d2luZG93LXg9Ii04IiBpbmtzY2FwZTp3aW5kb3cteT0iLTgiIGlua3NjYXBlOnpvb209IjEzLjE0NjY5IiBvYmplY3R0b2xlcmFuY2U9IjEwIiBwYWdlY29sb3I9IiNmZmZmZmYiIHNob3dncmlkPSJmYWxzZSI+JiN4YTsJPC9zb2RpcG9kaTpuYW1lZHZpZXc+JiN4YTs8ZyBpZD0iZzEwMTEzOCIgdHJhbnNmb3JtPSJ0cmFuc2xhdGUoLTIuMDM0MTQ0OGUtNSwtNGUtNCkiPiYjeGE7CTx0aXRsZSBpZD0idGl0bGUxMDEwNDciPlBhZ2UtMTwvdGl0bGU+JiN4YTsJPGcgaWQ9Imdyb3VwNDU3OS0xIj4mI3hhOwkJPHRpdGxlIGlkPSJ0aXRsZTEwMTA0OSI+VmlydHVhbCBNYWNoaW5lIFNjYWxlIFNldHMgKFZNIEltYWdlcyk8L3RpdGxlPiYjeGE7CQk8ZyBpZD0iZ3JvdXA0NTgwLTIiIHRyYW5zZm9ybT0idHJhbnNsYXRlKDAsLTExLjE3OTYpIj4mI3hhOwkJCTx0aXRsZSBpZD0idGl0bGUxMDEwNTEiPlNoZWV0LjQ1ODA8L3RpdGxlPiYjeGE7CQkJPGcgaWQ9InNoYXBlNDU4MS0zIiB0cmFuc2Zvcm09InRyYW5zbGF0ZSgxLjI4MDc0LC0wLjk4ODYxOCkiPiYjeGE7CQkJCTx0aXRsZSBpZD0idGl0bGUxMDEwNTMiPlNoZWV0LjQ1ODE8L3RpdGxlPiYjeGE7CQkJCTxwYXRoIGlkPSJwYXRoMTAxMDU1IiBpbmtzY2FwZTpjb25uZWN0b3ItY3VydmF0dXJlPSIwIiBzdHlsZT0iZmlsbDojMDBCQkYxOyIgZD0iTTE2LjE4LDEzLjMydjExLjQxSDBWMTMuMzJsMTYuMi0wLjAzICAgICAgTDE2LjE4LDEzLjMyeiIvPiYjeGE7CQkJPC9nPiYjeGE7CQkJPGcgaWQ9InNoYXBlNDU4Mi01Ij4mI3hhOwkJCQk8dGl0bGUgaWQ9InRpdGxlMTAxMDU4Ij5TaGVldC40NTgyPC90aXRsZT4mI3hhOwkJCQk8cGF0aCBpZD0icGF0aDEwMTA2MCIgaW5rc2NhcGU6Y29ubmVjdG9yLWN1cnZhdHVyZT0iMCIgc3R5bGU9ImZpbGw6I0M1QzVDNTsiIGQ9Ik0xNy4xOCwxMS4xOGMtMTYuMTUsMC0xNi4xNSwwLTE2LjE1LDAgICAgICBjLTAuNTcsMC0xLjAzLDAuNS0xLjAzLDEuMDhDMCwyMy43LDAsMjMuNywwLDIzLjdjMCwwLjU3LDAuNDYsMS4wMywxLjAzLDEuMDNjMTYuMTUsMCwxNi4xNSwwLDE2LjE1LDAgICAgICBjMC41NiwwLDEuMTItMC40NiwxLjEyLTEuMDNjMC0xMS40NCwwLTExLjQ0LDAtMTEuNDRDMTguMywxMS42OCwxNy43NCwxMS4xOCwxNy4xOCwxMS4xOHogTTE2LjksMTIuNjFjMCwxMC43LDAsMTAuNywwLDEwLjcgICAgICBjLTE1LjQ5LDAtMTUuNDksMC0xNS40OSwwYzAtMTAuNywwLTEwLjcsMC0xMC43YzE1LjUzLTAuMDMsMTUuNTMtMC4wMywxNS41My0wLjAzTDE2LjksMTIuNjF6Ii8+JiN4YTsJCQk8L2c+JiN4YTsJCQk8ZyBpZD0ic2hhcGU0NTgzLTciIHRyYW5zZm9ybT0idHJhbnNsYXRlKDUuODU0ODIsLTYuOTU4NjEpIj4mI3hhOwkJCQk8dGl0bGUgaWQ9InRpdGxlMTAxMDYzIj5TaGVldC40NTgzPC90aXRsZT4mI3hhOwkJCQk8cGF0aCBpZD0icGF0aDEwMTA2NSIgaW5rc2NhcGU6Y29ubmVjdG9yLWN1cnZhdHVyZT0iMCIgc3R5bGU9ImZpbGw6I0U2RjhGRTsiIGQ9Ik0zLjI5LDIwLjg5Yy0wLjAzLDAtMC4wMywwLTAuMDcsMCAgICAgIGMtMy4xNywxLjg0LTMuMTcsMS44NC0zLjE3LDEuODRDMCwyMi43MywwLDIyLjc2LDAsMjIuOGMwLDAuMDMsMCwwLjA3LDAuMDUsMC4xYzMuMjEsMS44MywzLjIxLDEuODMsMy4yMSwxLjgzaDAuMDMgICAgICBjMC4wNSwwLDAuMDUsMCwwLjA4LDBjMy4xOC0xLjgzLDMuMTgtMS44MywzLjE4LTEuODNjMC4wNCwwLDAuMDQtMC4wMywwLjA0LTAuMDdjMC0wLjAzLDAtMC4wNy0wLjA0LTAuMSAgICAgIGMtMy4yMS0xLjg0LTMuMjEtMS44NC0zLjIxLTEuODRTMy4yOSwyMC44OSwzLjI5LDIwLjg5eiIvPiYjeGE7CQkJPC9nPiYjeGE7CQkJPGcgaWQ9InNoYXBlNDU4NC05IiB0cmFuc2Zvcm09InRyYW5zbGF0ZSg1LjMwNTkzLC0yLjM4MDU4KSI+JiN4YTsJCQkJPHRpdGxlIGlkPSJ0aXRsZTEwMTA2OCI+U2hlZXQuNDU4NDwvdGl0bGU+JiN4YTsJCQkJPHBhdGggaWQ9InBhdGgxMDEwNzAiIGlua3NjYXBlOmNvbm5lY3Rvci1jdXJ2YXR1cmU9IjAiIHN0eWxlPSJmaWxsOiNDQ0YxRkM7IiBkPSJNMC4xMSwxOC44N2MtMC4wMywwLTAuMDMsMC0wLjA2LDAgICAgICBDMCwxOC44NywwLDE4LjkyLDAsMTguOTVjMCwzLjc5LDAsMy43OSwwLDMuNzljMCwwLjAzLDAsMC4wNywwLjA1LDAuMWMzLjI5LDEuODYsMy4yOSwxLjg2LDMuMjksMS44NiAgICAgIGMwLDAuMDMsMC4wMywwLjAzLDAuMDMsMC4wM2MwLjA0LDAsMC4wNCwwLDAuMDctMC4wM2MwLDAsMC4wNC0wLjA0LDAuMDQtMC4wN2MwLTMuNzksMC0zLjc5LDAtMy43OWMwLTAuMDQtMC4wNC0wLjA3LTAuMDQtMC4wNyAgICAgIGMtMy4yOS0xLjktMy4yOS0xLjktMy4yOS0xLjlTMC4xMSwxOC44NywwLjExLDE4Ljg3eiIvPiYjeGE7CQkJPC9nPiYjeGE7CQkJPGcgaWQ9InNoYXBlNDU4NS0xMSIgdHJhbnNmb3JtPSJ0cmFuc2xhdGUoOS41MTQwOCwtMi4zODA1OCkiPiYjeGE7CQkJCTx0aXRsZSBpZD0idGl0bGUxMDEwNzMiPlNoZWV0LjQ1ODU8L3RpdGxlPiYjeGE7CQkJCTxwYXRoIGlkPSJwYXRoMTAxMDc1IiBpbmtzY2FwZTpjb25uZWN0b3ItY3VydmF0dXJlPSIwIiBzdHlsZT0iZmlsbDojODBEREY4OyIgZD0iTTMuMiwxOC44N2MwLDAtMC4wMywwLTAuMDMsMC4wNSAgICAgIGMtMy4xLDEuODUtMy4xLDEuODUtMy4xLDEuODVDMC4wMywyMC44LDAsMjAuODQsMCwyMC44N2MwLDMuNzYsMCwzLjc2LDAsMy43NmMwLDAuMDMsMC4wMywwLjA3LDAuMDcsMC4wNyAgICAgIGMwLDAuMDMsMCwwLjAzLDAuMDMsMC4wM2MwLDAsMC4wNCwwLDAuMDQtMC4wM2MzLjEyLTEuODYsMy4xMi0xLjg2LDMuMTItMS44NmMwLjAzLTAuMDMsMC4wMy0wLjA3LDAuMDMtMC4xICAgICAgYzAtMy43NSwwLTMuNzUsMC0zLjc1YzAtMC4wNCwwLTAuMDctMC4wMy0wLjA3QzMuMjQsMTguODcsMy4yNCwxOC44NywzLjIsMTguODd6Ii8+JiN4YTsJCQk8L2c+JiN4YTsJCTwvZz4mI3hhOwkJPGcgaWQ9Imdyb3VwNDU4Ni0xMyIgdHJhbnNmb3JtPSJ0cmFuc2xhdGUoMy4xNTYyMywtNy4yNzkxMykiPiYjeGE7CQkJPHRpdGxlIGlkPSJ0aXRsZTEwMTA3OSI+U2hlZXQuNDU4NjwvdGl0bGU+JiN4YTsJCQk8ZyBpZD0ic2hhcGU0NTg3LTE0IiB0cmFuc2Zvcm09InRyYW5zbGF0ZSgxLjI4MDc0LC0wLjk4ODYxOCkiPiYjeGE7CQkJCTx0aXRsZSBpZD0idGl0bGUxMDEwODEiPlNoZWV0LjQ1ODc8L3RpdGxlPiYjeGE7CQkJCTxwYXRoIGlkPSJwYXRoMTAxMDgzIiBpbmtzY2FwZTpjb25uZWN0b3ItY3VydmF0dXJlPSIwIiBzdHlsZT0iZmlsbDojMDBCQkYxOyIgZD0iTTE2LjE4LDEzLjMydjExLjQxSDBWMTMuMzJsMTYuMi0wLjAzICAgICAgTDE2LjE4LDEzLjMyeiIvPiYjeGE7CQkJPC9nPiYjeGE7CQkJPGcgaWQ9InNoYXBlNDU4OC0xNiI+JiN4YTsJCQkJPHRpdGxlIGlkPSJ0aXRsZTEwMTA4NiI+U2hlZXQuNDU4ODwvdGl0bGU+JiN4YTsJCQkJPHBhdGggaWQ9InBhdGgxMDEwODgiIGlua3NjYXBlOmNvbm5lY3Rvci1jdXJ2YXR1cmU9IjAiIHN0eWxlPSJmaWxsOiNDNUM1QzU7IiBkPSJNMTcuMTgsMTEuMThjLTE2LjE1LDAtMTYuMTUsMC0xNi4xNSwwICAgICAgYy0wLjU3LDAtMS4wMywwLjUtMS4wMywxLjA4QzAsMjMuNywwLDIzLjcsMCwyMy43YzAsMC41NywwLjQ2LDEuMDMsMS4wMywxLjAzYzE2LjE1LDAsMTYuMTUsMCwxNi4xNSwwICAgICAgYzAuNTYsMCwxLjEyLTAuNDYsMS4xMi0xLjAzYzAtMTEuNDQsMC0xMS40NCwwLTExLjQ0QzE4LjMsMTEuNjgsMTcuNzQsMTEuMTgsMTcuMTgsMTEuMTh6IE0xNi45LDEyLjYxYzAsMTAuNywwLDEwLjcsMCwxMC43ICAgICAgYy0xNS40OSwwLTE1LjQ5LDAtMTUuNDksMGMwLTEwLjcsMC0xMC43LDAtMTAuN2MxNS41My0wLjAzLDE1LjUzLTAuMDMsMTUuNTMtMC4wM0wxNi45LDEyLjYxeiIvPiYjeGE7CQkJPC9nPiYjeGE7CQkJPGcgaWQ9InNoYXBlNDU4OS0xOCIgdHJhbnNmb3JtPSJ0cmFuc2xhdGUoNS44NTQ4MiwtNi45NTg2MSkiPiYjeGE7CQkJCTx0aXRsZSBpZD0idGl0bGUxMDEwOTEiPlNoZWV0LjQ1ODk8L3RpdGxlPiYjeGE7CQkJCTxwYXRoIGlkPSJwYXRoMTAxMDkzIiBpbmtzY2FwZTpjb25uZWN0b3ItY3VydmF0dXJlPSIwIiBzdHlsZT0iZmlsbDojRTZGOEZFOyIgZD0iTTMuMjksMjAuODljLTAuMDMsMC0wLjAzLDAtMC4wNywwICAgICAgYy0zLjE3LDEuODQtMy4xNywxLjg0LTMuMTcsMS44NEMwLDIyLjczLDAsMjIuNzYsMCwyMi44YzAsMC4wMywwLDAuMDcsMC4wNSwwLjFjMy4yMSwxLjgzLDMuMjEsMS44MywzLjIxLDEuODNoMC4wMyAgICAgIGMwLjA1LDAsMC4wNSwwLDAuMDgsMGMzLjE4LTEuODMsMy4xOC0xLjgzLDMuMTgtMS44M2MwLjA0LDAsMC4wNC0wLjAzLDAuMDQtMC4wN2MwLTAuMDMsMC0wLjA3LTAuMDQtMC4xICAgICAgYy0zLjIxLTEuODQtMy4yMS0xLjg0LTMuMjEtMS44NFMzLjI5LDIwLjg5LDMuMjksMjAuODl6Ii8+JiN4YTsJCQk8L2c+JiN4YTsJCQk8ZyBpZD0ic2hhcGU0NTkwLTIwIiB0cmFuc2Zvcm09InRyYW5zbGF0ZSg1LjMwNTkzLC0yLjM4MDU4KSI+JiN4YTsJCQkJPHRpdGxlIGlkPSJ0aXRsZTEwMTA5NiI+U2hlZXQuNDU5MDwvdGl0bGU+JiN4YTsJCQkJPHBhdGggaWQ9InBhdGgxMDEwOTgiIGlua3NjYXBlOmNvbm5lY3Rvci1jdXJ2YXR1cmU9IjAiIHN0eWxlPSJmaWxsOiNDQ0YxRkM7IiBkPSJNMC4xMSwxOC44N2MtMC4wMywwLTAuMDMsMC0wLjA2LDAgICAgICBDMCwxOC44NywwLDE4LjkyLDAsMTguOTVjMCwzLjc5LDAsMy43OSwwLDMuNzljMCwwLjAzLDAsMC4wNywwLjA1LDAuMWMzLjI5LDEuODYsMy4yOSwxLjg2LDMuMjksMS44NiAgICAgIGMwLDAuMDMsMC4wMywwLjAzLDAuMDMsMC4wM2MwLjA0LDAsMC4wNCwwLDAuMDctMC4wM2MwLDAsMC4wNC0wLjA0LDAuMDQtMC4wN2MwLTMuNzksMC0zLjc5LDAtMy43OWMwLTAuMDQtMC4wNC0wLjA3LTAuMDQtMC4wNyAgICAgIGMtMy4yOS0xLjktMy4yOS0xLjktMy4yOS0xLjlTMC4xMSwxOC44NywwLjExLDE4Ljg3eiIvPiYjeGE7CQkJPC9nPiYjeGE7CQkJPGcgaWQ9InNoYXBlNDU5MS0yMiIgdHJhbnNmb3JtPSJ0cmFuc2xhdGUoOS41MTQwOCwtMi4zODA1OCkiPiYjeGE7CQkJCTx0aXRsZSBpZD0idGl0bGUxMDExMDEiPlNoZWV0LjQ1OTE8L3RpdGxlPiYjeGE7CQkJCTxwYXRoIGlkPSJwYXRoMTAxMTAzIiBpbmtzY2FwZTpjb25uZWN0b3ItY3VydmF0dXJlPSIwIiBzdHlsZT0iZmlsbDojODBEREY4OyIgZD0iTTMuMiwxOC44N2MwLDAtMC4wMywwLTAuMDMsMC4wNSAgICAgIGMtMy4xLDEuODUtMy4xLDEuODUtMy4xLDEuODVDMC4wMywyMC44LDAsMjAuODQsMCwyMC44N2MwLDMuNzYsMCwzLjc2LDAsMy43NmMwLDAuMDMsMC4wMywwLjA3LDAuMDcsMC4wNyAgICAgIGMwLDAuMDMsMCwwLjAzLDAuMDMsMC4wM2MwLDAsMC4wNCwwLDAuMDQtMC4wM2MzLjEyLTEuODYsMy4xMi0xLjg2LDMuMTItMS44NmMwLjAzLTAuMDMsMC4wMy0wLjA3LDAuMDMtMC4xICAgICAgYzAtMy43NSwwLTMuNzUsMC0zLjc1YzAtMC4wNCwwLTAuMDctMC4wMy0wLjA3QzMuMjQsMTguODcsMy4yNCwxOC44NywzLjIsMTguODd6Ii8+JiN4YTsJCQk8L2c+JiN4YTsJCTwvZz4mI3hhOwkJPGcgaWQ9InNoYXBlNDU5Mi0yNCIgdHJhbnNmb3JtPSJ0cmFuc2xhdGUoNy43MzQ0MywtNC40Njc5MikiPiYjeGE7CQkJPHRpdGxlIGlkPSJ0aXRsZTEwMTEwNyI+U2hlZXQuNDU5MjwvdGl0bGU+JiN4YTsJCQk8cGF0aCBpZD0icGF0aDEwMTEwOSIgaW5rc2NhcGU6Y29ubmVjdG9yLWN1cnZhdHVyZT0iMCIgc3R5bGU9ImZpbGw6IzAwQkJGMTsiIGQ9Ik0xNi4xOCwxMy4zMnYxMS40MUgwVjEzLjMybDE2LjItMC4wMyAgICAgTDE2LjE4LDEzLjMyeiIvPiYjeGE7CQk8L2c+JiN4YTsJCTxnIGlkPSJzaGFwZTQ1OTMtMjYiIHRyYW5zZm9ybT0idHJhbnNsYXRlKDkuNTY0MDYpIj4mI3hhOwkJCTx0aXRsZSBpZD0idGl0bGUxMDExMTIiPlNoZWV0LjQ1OTM8L3RpdGxlPiYjeGE7CQkJPHBhdGggaWQ9InBhdGgxMDExMTQiIGlua3NjYXBlOmNvbm5lY3Rvci1jdXJ2YXR1cmU9IjAiIHN0eWxlPSJmaWxsOiM5MTkxOTE7IiBkPSJNOC43OCwyMS4yNWMtMC40NiwwLTAuNDYsMC0wLjQ2LDAgICAgIGMtNC4zMiwwLTQuMzIsMC00LjMyLDBjLTAuMjQsMC0wLjI0LDAtMC4yNCwwYzAuNiwyLjEtMC4yMiwyLjQtMy43NiwyLjRjMCwxLjA4LDAsMS4wOCwwLDEuMDhjNC41NCwwLDQuNTQsMCw0LjU0LDAgICAgIGMzLjI5LDAsMy4yOSwwLDMuMjksMGM0LjI1LDAsNC4yNSwwLDQuMjUsMGMwLTEuMDgsMC0xLjA4LDAtMS4wOEM4LjU0LDIzLjY1LDguMTksMjMuMzUsOC43OCwyMS4yNXoiLz4mI3hhOwkJPC9nPiYjeGE7CQk8ZyBpZD0ic2hhcGU0NTk0LTI4IiB0cmFuc2Zvcm09InRyYW5zbGF0ZSg2LjQ1MzY5LC0zLjQ3OTMxKSI+JiN4YTsJCQk8dGl0bGUgaWQ9InRpdGxlMTAxMTE3Ij5TaGVldC40NTk0PC90aXRsZT4mI3hhOwkJCTxwYXRoIGlkPSJwYXRoMTAxMTE5IiBpbmtzY2FwZTpjb25uZWN0b3ItY3VydmF0dXJlPSIwIiBzdHlsZT0iZmlsbDojQzVDNUM1OyIgZD0iTTE3LjE4LDExLjE4Yy0xNi4xNSwwLTE2LjE1LDAtMTYuMTUsMCAgICAgYy0wLjU3LDAtMS4wMywwLjUtMS4wMywxLjA4QzAsMjMuNywwLDIzLjcsMCwyMy43YzAsMC41NywwLjQ2LDEuMDMsMS4wMywxLjAzYzE2LjE1LDAsMTYuMTUsMCwxNi4xNSwwICAgICBjMC41NiwwLDEuMTItMC40NiwxLjEyLTEuMDNjMC0xMS40NCwwLTExLjQ0LDAtMTEuNDRDMTguMywxMS42OCwxNy43NCwxMS4xOCwxNy4xOCwxMS4xOHogTTE2LjksMTIuNjFjMCwxMC43LDAsMTAuNywwLDEwLjcgICAgIGMtMTUuNDksMC0xNS40OSwwLTE1LjQ5LDBjMC0xMC43LDAtMTAuNywwLTEwLjdjMTUuNTMtMC4wMywxNS41My0wLjAzLDE1LjUzLTAuMDNMMTYuOSwxMi42MXoiLz4mI3hhOwkJPC9nPiYjeGE7CQk8ZyBpZD0ic2hhcGU0NTk1LTMwIiB0cmFuc2Zvcm09InRyYW5zbGF0ZSgxMi4zMDg1LC0xMC40Mzc5KSI+JiN4YTsJCQk8dGl0bGUgaWQ9InRpdGxlMTAxMTIyIj5TaGVldC40NTk1PC90aXRsZT4mI3hhOwkJCTxwYXRoIGlkPSJwYXRoMTAxMTI0IiBpbmtzY2FwZTpjb25uZWN0b3ItY3VydmF0dXJlPSIwIiBzdHlsZT0iZmlsbDojRTZGOEZFOyIgZD0iTTMuMjksMjAuODljLTAuMDMsMC0wLjAzLDAtMC4wNywwICAgICBjLTMuMTcsMS44NC0zLjE3LDEuODQtMy4xNywxLjg0QzAsMjIuNzMsMCwyMi43NiwwLDIyLjhjMCwwLjAzLDAsMC4wNywwLjA1LDAuMWMzLjIxLDEuODMsMy4yMSwxLjgzLDMuMjEsMS44M2gwLjAzICAgICBjMC4wNSwwLDAuMDUsMCwwLjA4LDBjMy4xOC0xLjgzLDMuMTgtMS44MywzLjE4LTEuODNjMC4wNCwwLDAuMDQtMC4wMywwLjA0LTAuMDdjMC0wLjAzLDAtMC4wNy0wLjA0LTAuMSAgICAgYy0zLjIxLTEuODQtMy4yMS0xLjg0LTMuMjEtMS44NFMzLjI5LDIwLjg5LDMuMjksMjAuODl6Ii8+JiN4YTsJCTwvZz4mI3hhOwkJPGcgaWQ9InNoYXBlNDU5Ni0zMiIgdHJhbnNmb3JtPSJ0cmFuc2xhdGUoMTEuNzU5NiwtNS44NTk4OCkiPiYjeGE7CQkJPHRpdGxlIGlkPSJ0aXRsZTEwMTEyNyI+U2hlZXQuNDU5NjwvdGl0bGU+JiN4YTsJCQk8cGF0aCBpZD0icGF0aDEwMTEyOSIgaW5rc2NhcGU6Y29ubmVjdG9yLWN1cnZhdHVyZT0iMCIgc3R5bGU9ImZpbGw6I0NDRjFGQzsiIGQ9Ik0wLjExLDE4Ljg3Yy0wLjAzLDAtMC4wMywwLTAuMDYsMCAgICAgQzAsMTguODcsMCwxOC45MiwwLDE4Ljk1YzAsMy43OSwwLDMuNzksMCwzLjc5YzAsMC4wMywwLDAuMDcsMC4wNSwwLjFjMy4yOSwxLjg2LDMuMjksMS44NiwzLjI5LDEuODYgICAgIGMwLDAuMDMsMC4wMywwLjAzLDAuMDMsMC4wM2MwLjA0LDAsMC4wNCwwLDAuMDctMC4wM2MwLDAsMC4wNC0wLjA0LDAuMDQtMC4wN2MwLTMuNzksMC0zLjc5LDAtMy43OWMwLTAuMDQtMC4wNC0wLjA3LTAuMDQtMC4wNyAgICAgYy0zLjI5LTEuOS0zLjI5LTEuOS0zLjI5LTEuOVMwLjExLDE4Ljg3LDAuMTEsMTguODd6Ii8+JiN4YTsJCTwvZz4mI3hhOwkJPGcgaWQ9InNoYXBlNDU5Ny0zNCIgdHJhbnNmb3JtPSJ0cmFuc2xhdGUoMTUuOTY3OCwtNS44NTk4OCkiPiYjeGE7CQkJPHRpdGxlIGlkPSJ0aXRsZTEwMTEzMiI+U2hlZXQuNDU5NzwvdGl0bGU+JiN4YTsJCQk8cGF0aCBpZD0icGF0aDEwMTEzNCIgaW5rc2NhcGU6Y29ubmVjdG9yLWN1cnZhdHVyZT0iMCIgc3R5bGU9ImZpbGw6IzgwRERGODsiIGQ9Ik0zLjIsMTguODdjMCwwLTAuMDMsMC0wLjAzLDAuMDUgICAgIGMtMy4xLDEuODUtMy4xLDEuODUtMy4xLDEuODVDMC4wMywyMC44LDAsMjAuODQsMCwyMC44N2MwLDMuNzYsMCwzLjc2LDAsMy43NmMwLDAuMDMsMC4wMywwLjA3LDAuMDcsMC4wNyAgICAgYzAsMC4wMywwLDAuMDMsMC4wMywwLjAzYzAsMCwwLjA0LDAsMC4wNC0wLjAzYzMuMTItMS44NiwzLjEyLTEuODYsMy4xMi0xLjg2YzAuMDMtMC4wMywwLjAzLTAuMDcsMC4wMy0wLjEgICAgIGMwLTMuNzUsMC0zLjc1LDAtMy43NWMwLTAuMDQsMC0wLjA3LTAuMDMtMC4wN0MzLjI0LDE4Ljg3LDMuMjQsMTguODcsMy4yLDE4Ljg3eiIvPiYjeGE7CQk8L2c+JiN4YTsJPC9nPiYjeGE7PC9nPiYjeGE7PC9zdmc+;rounded=0;html=1;" vertex="1" parent="K4b8i-s4721dZrcPZKNP-1">
          <mxGeometry x="250.5" y="181.5" width="48.5" height="48.5" as="geometry" />
        </mxCell>
        <mxCell id="K4b8i-s4721dZrcPZKNP-26" value="TTSFA Oracle" style="shape=image;verticalLabelPosition=bottom;labelBackgroundColor=#ffffff;verticalAlign=top;aspect=fixed;imageAspect=0;image=data:image/svg+xml,PHN2ZyB4bWxuczpjYz0iaHR0cDovL2NyZWF0aXZlY29tbW9ucy5vcmcvbnMjIiB4bWxuczpkYz0iaHR0cDovL3B1cmwub3JnL2RjL2VsZW1lbnRzLzEuMS8iIHhtbG5zOmlua3NjYXBlPSJodHRwOi8vd3d3Lmlua3NjYXBlLm9yZy9uYW1lc3BhY2VzL2lua3NjYXBlIiB4bWxuczpyZGY9Imh0dHA6Ly93d3cudzMub3JnLzE5OTkvMDIvMjItcmRmLXN5bnRheC1ucyMiIHhtbG5zOnNvZGlwb2RpPSJodHRwOi8vc29kaXBvZGkuc291cmNlZm9yZ2UubmV0L0RURC9zb2RpcG9kaS0wLmR0ZCIgeG1sbnM6c3ZnPSJodHRwOi8vd3d3LnczLm9yZy8yMDAwL3N2ZyIgeG1sbnM9Imh0dHA6Ly93d3cudzMub3JnLzIwMDAvc3ZnIiB4bWxuczp4bGluaz0iaHR0cDovL3d3dy53My5vcmcvMTk5OS94bGluayIgdmVyc2lvbj0iMS4xIiBpZD0ic3ZnMTAyNDE4IiBpbmtzY2FwZTp2ZXJzaW9uPSIwLjkyLjMgKDI0MDU1NDYsIDIwMTgtMDMtMTEpIiBzb2RpcG9kaTpkb2NuYW1lPSJvcmFjbGVfZGF0YWJhc2Uuc3ZnIiB4PSIwcHgiIHk9IjBweCIgdmlld0JveD0iMCAwIDMwLjYyIDM0LjkzIiBzdHlsZT0iZW5hYmxlLWJhY2tncm91bmQ6bmV3IDAgMCAzMC42MiAzNC45MzsiIHhtbDpzcGFjZT0icHJlc2VydmUiPiYjeGE7PHNvZGlwb2RpOm5hbWVkdmlldyBib3JkZXJjb2xvcj0iIzY2NjY2NiIgYm9yZGVyb3BhY2l0eT0iMSIgZml0LW1hcmdpbi1ib3R0b209IjAiIGZpdC1tYXJnaW4tbGVmdD0iMCIgZml0LW1hcmdpbi1yaWdodD0iMCIgZml0LW1hcmdpbi10b3A9IjAiIGdyaWR0b2xlcmFuY2U9IjEwIiBndWlkZXRvbGVyYW5jZT0iMTAiIGlkPSJuYW1lZHZpZXcxMDI0MjAiIGlua3NjYXBlOmN1cnJlbnQtbGF5ZXI9InN2ZzEwMjQxOCIgaW5rc2NhcGU6Y3g9IjIwLjQxMzUzMyIgaW5rc2NhcGU6Y3k9IjIzLjI4Njg2NiIgaW5rc2NhcGU6cGFnZW9wYWNpdHk9IjAiIGlua3NjYXBlOnBhZ2VzaGFkb3c9IjIiIGlua3NjYXBlOndpbmRvdy1oZWlnaHQ9IjEwMTciIGlua3NjYXBlOndpbmRvdy1tYXhpbWl6ZWQ9IjEiIGlua3NjYXBlOndpbmRvdy13aWR0aD0iMTkyMCIgaW5rc2NhcGU6d2luZG93LXg9Ii04IiBpbmtzY2FwZTp3aW5kb3cteT0iLTgiIGlua3NjYXBlOnpvb209IjE2LjgyODE1NiIgb2JqZWN0dG9sZXJhbmNlPSIxMCIgcGFnZWNvbG9yPSIjZmZmZmZmIiBzaG93Z3JpZD0iZmFsc2UiPiYjeGE7CTwvc29kaXBvZGk6bmFtZWR2aWV3PiYjeGE7PGcgaWQ9ImcxMDI0MTYiIHRyYW5zZm9ybT0idHJhbnNsYXRlKC0xLjg1NDU3OCwtMS44NTEwNSkiPiYjeGE7CTx0aXRsZSBpZD0idGl0bGUxMDIzODEiPlBhZ2UtMTwvdGl0bGU+JiN4YTsJPGcgaWQ9Imdyb3VwMzYxOS0xIiB0cmFuc2Zvcm09InRyYW5zbGF0ZSgxLjg1NDU1LC0xLjg1NDU1KSI+JiN4YTsJCTx0aXRsZSBpZD0idGl0bGUxMDIzODMiPk9yYWNsZSBEYXRhYmFzZTwvdGl0bGU+JiN4YTsJCTxnIGlkPSJzaGFwZTM2MjAtMiIgdHJhbnNmb3JtPSJ0cmFuc2xhdGUoMCwtMC4xMTA1NDMpIj4mI3hhOwkJCTx0aXRsZSBpZD0idGl0bGUxMDIzODUiPlNoZWV0LjM2MjA8L3RpdGxlPiYjeGE7CQkJPHBhdGggaWQ9InBhdGgxMDIzODciIGlua3NjYXBlOmNvbm5lY3Rvci1jdXJ2YXR1cmU9IjAiIHN0eWxlPSJmaWxsOiNFQjIyMjc7IiBkPSJNMTUuMjUsOS4yNEM2Ljg1LDkuMjQsMCw4LjAyLDAsNi40N3YyOS40MSAgICAgYzAsMS41NCw2Ljg1LDIuNzYsMTUuMjUsMi43NmM4LjQxLDAsMTUuMjYtMS4yMiwxNS4yNi0yLjc2VjYuNDdDMzAuNjIsOC4wMiwyMy43Nyw5LjI0LDE1LjI1LDkuMjR6Ii8+JiN4YTsJCTwvZz4mI3hhOwkJPGcgaWQ9InNoYXBlMzYyMS00Ij4mI3hhOwkJCTx0aXRsZSBpZD0idGl0bGUxMDIzOTAiPlNoZWV0LjM2MjE8L3RpdGxlPiYjeGE7CQkJPHBhdGggaWQ9InBhdGgxMDIzOTIiIGlua3NjYXBlOmNvbm5lY3Rvci1jdXJ2YXR1cmU9IjAiIHN0eWxlPSJmaWxsOiNEODIzMjg7IiBkPSJNMCw2LjQ3djI5LjQxYzAsMS41NCw2Ljg1LDIuNzYsMTUuMjUsMi43NiAgICAgVjkuMjRDNi44NSw5LjEzLDAsNy45MSwwLDYuNDd6Ii8+JiN4YTsJCTwvZz4mI3hhOwkJPGcgaWQ9InNoYXBlMzYyMi02IiB0cmFuc2Zvcm09InRyYW5zbGF0ZSgyOC41MiwtMS40MzcwNikiPiYjeGE7CQkJPHRpdGxlIGlkPSJ0aXRsZTEwMjM5NSI+U2hlZXQuMzYyMjwvdGl0bGU+JiN4YTsJCQk8cGF0aCBpZD0icGF0aDEwMjM5NyIgaW5rc2NhcGU6Y29ubmVjdG9yLWN1cnZhdHVyZT0iMCIgc3R5bGU9ImZpbGw6I0Q4MjMyODsiIGQ9Ik0wLDkuMjR2MjkuNGMxLjMzLTAuNDQsMi4xLTAuODgsMi4xLTEuMzNWNy45MSAgICAgQzIuMSw4LjM1LDEuMzMsOC45LDAsOS4yNHoiLz4mI3hhOwkJPC9nPiYjeGE7CQk8ZyBpZD0ic2hhcGUzNjIzLTgiIHRyYW5zZm9ybT0idHJhbnNsYXRlKDAuMTEwNTQzLC0yOS40MDQ0KSI+JiN4YTsJCQk8dGl0bGUgaWQ9InRpdGxlMTAyNDAwIj5TaGVldC4zNjIzPC90aXRsZT4mI3hhOwkJCTxwYXRoIGlkPSJwYXRoMTAyNDAyIiBpbmtzY2FwZTpjb25uZWN0b3ItY3VydmF0dXJlPSIwIiBzdHlsZT0iZmlsbDojQjkyMzI3OyIgZD0iTTMwLjUxLDM1Ljg4YzAsMS41NC02Ljg1LDIuNzYtMTUuMjYsMi43NiAgICAgQzYuODUsMzguNjQsMCwzNy40MiwwLDM1Ljg4YzAtMS41NSw2Ljg1LTIuNzcsMTUuMjUtMi43N0MyMy42NiwzMy4xMSwzMC41MSwzNC4zMywzMC41MSwzNS44OHoiLz4mI3hhOwkJPC9nPiYjeGE7CQk8ZyBpZD0ic2hhcGUzNjI0LTEwIiB0cmFuc2Zvcm09InRyYW5zbGF0ZSgwLC04LjczMjg4KSI+JiN4YTsJCQk8dGl0bGUgaWQ9InRpdGxlMTAyNDA1Ij5TaGVldC4zNjI0PC90aXRsZT4mI3hhOwkJCTxwYXRoIGlkPSJwYXRoMTAyNDA3IiBpbmtzY2FwZTpjb25uZWN0b3ItY3VydmF0dXJlPSIwIiBzdHlsZT0iZmlsbDojOUExQzIxOyIgZD0iTTAsMzMuNjdjMCwxLjU0LDYuODUsMi43NiwxNS4yNSwyLjc2ICAgICBjOC40MSwwLDE1LjI2LTEuMjIsMTUuMjYtMi43NnYyLjIxYzAsMS41NC02Ljg1LDIuNzYtMTUuMjYsMi43NkM2Ljg1LDM4LjY0LDAsMzcuNDIsMCwzNS44OFYzMy42N3oiLz4mI3hhOwkJPC9nPiYjeGE7CQk8ZyBpZD0ic2hhcGUzNjI1LTEyIiB0cmFuc2Zvcm09InRyYW5zbGF0ZSgwLjExMDU0MywtMTguNDYwNikiPiYjeGE7CQkJPHRpdGxlIGlkPSJ0aXRsZTEwMjQxMCI+U2hlZXQuMzYyNTwvdGl0bGU+JiN4YTsJCQk8cGF0aCBpZD0icGF0aDEwMjQxMiIgaW5rc2NhcGU6Y29ubmVjdG9yLWN1cnZhdHVyZT0iMCIgc3R5bGU9ImZpbGw6IzlBMUMyMTsiIGQ9Ik0zMC41MSwzMy42N2MwLDEuNTQtNi44NSwyLjc2LTE1LjI2LDIuNzYgICAgIEM2Ljg1LDM2LjQzLDAsMzUuMjEsMCwzMy42N3YyLjIxYzAsMS41NCw2Ljg1LDIuNzYsMTUuMjUsMi43NmM4LjQxLDAsMTUuMjYtMS4yMiwxNS4yNi0yLjc2VjMzLjY3eiIvPiYjeGE7CQk8L2c+JiN4YTsJPC9nPiYjeGE7PC9nPiYjeGE7PC9zdmc+;" vertex="1" parent="K4b8i-s4721dZrcPZKNP-1">
          <mxGeometry x="44" y="183.25" width="41.41" height="46.75" as="geometry" />
        </mxCell>
        <mxCell id="RcrP4VLmStloTp4ipx0A-1" value="Azure Active Directory" style="verticalLabelPosition=bottom;html=1;verticalAlign=top;align=center;strokeColor=none;fillColor=#00BEF2;shape=mxgraph.azure.azure_active_directory;" vertex="1" parent="K4b8i-s4721dZrcPZKNP-1">
          <mxGeometry x="895.25" y="480" width="47.5" height="50" as="geometry" />
        </mxCell>
      </root>
    </mxGraphModel>
  </diagram>
</mxfile>
